<svg width="378" height="378" viewBox="0 0 378 378" fill="none" xmlns="http://www.w3.org/2000/svg">
<g clip-path="url(#clip0_1766_6233)">
<mask id="mask0_1766_6233" style="mask-type:luminance" maskUnits="userSpaceOnUse" x="0" y="0" width="378" height="378">
<path d="M378 0H0V378H378V0Z" fill="white"/>
</mask>
<g mask="url(#mask0_1766_6233)">
<path d="M179.184 302.452C272.609 311.907 320.758 288.925 323.632 233.506C327.942 150.378 255.332 159.358 234.186 137.45C213.039 115.541 236.729 146.676 196.003 101.276C168.852 71.0088 132.674 70.8533 87.468 100.811C51.0045 130.488 47.0608 169.408 75.6357 217.569C104.211 265.729 138.726 294.024 179.184 302.452Z" fill="#A6DEC7"/>
<path d="M64.7212 249.857L61.7495 252.829L56.8856 247.962L52.0117 252.836L49.04 249.864L53.9114 244.991L49.0476 240.127L52.0192 237.152L56.8831 242.019L61.757 237.147L64.7287 240.119L59.8573 244.993L64.7212 249.857Z" fill="#235C45"/>
<path d="M304.302 144.831C299.784 144.831 296.125 141.166 296.125 136.649C296.125 132.132 299.784 128.467 304.302 128.467C308.82 128.467 312.479 132.132 312.479 136.649C312.479 141.166 308.82 144.831 304.302 144.831ZM304.302 140.167C306.236 140.167 307.806 138.594 307.806 136.649C307.806 134.703 306.236 133.13 304.302 133.13C302.367 133.13 300.796 134.703 300.796 136.649C300.796 138.594 302.367 140.167 304.302 140.167Z" fill="#177B50"/>
<mask id="mask1_1766_6233" style="mask-type:luminance" maskUnits="userSpaceOnUse" x="134" y="94" width="148" height="43">
<path d="M281.651 94.5571H134.622L134.537 136.599H281.565L281.651 94.5571Z" fill="white"/>
</mask>
<g mask="url(#mask1_1766_6233)">
<path d="M136.727 96.6899C155.568 96.6899 157.923 107.826 157.923 118.942V131.07C157.923 132.992 159.384 134.553 161.182 134.553L272.198 133.588C273.997 133.588 275.457 132.028 275.457 130.106V117.031C275.457 105.105 266.411 95.4346 255.254 95.4346C254.498 95.4346 135.938 96.6899 136.727 96.6899Z" fill="#17573C"/>
<path d="M136.724 98.7281C136.724 100.546 138.201 102.022 140.021 102.022C255.278 102.022 255.299 102.021 255.32 102.022C262.873 102.035 268.993 108.208 269.005 115.828V131.452H272.264C274.062 131.452 275.523 129.98 275.523 128.165V115.828C275.571 104.559 266.555 95.3862 255.386 95.3379H255.255H254.039C253.74 95.3556 253.449 95.4038 253.154 95.4356H140.016C138.198 95.4356 136.724 96.9099 136.724 98.7281Z" fill="#136544"/>
</g>
<mask id="mask2_1766_6233" style="mask-type:luminance" maskUnits="userSpaceOnUse" x="89" y="92" width="182" height="198">
<path d="M270.372 92.4392H89.4951V289.388H270.372V92.4392Z" fill="white"/>
</mask>
<g mask="url(#mask2_1766_6233)">
<path d="M255.254 101.616V95.4336H137.865C122.484 95.4571 110.021 108.025 109.997 123.534V284.893C109.997 286.706 111.457 288.178 113.255 288.178H213.765C229.126 288.13 241.559 275.566 241.569 260.078V115.803V115.649C241.665 108.092 247.761 101.637 255.254 101.626C255.284 101.626 255.313 101.617 255.342 101.616H255.254Z" fill="white"/>
<path d="M137.802 95.4336C122.42 95.4583 109.955 108.027 109.932 123.535V218.002L180.117 95.3464L137.802 95.4336Z" fill="#AED5C6"/>
<path d="M109.996 161.637V125.617C110.021 110.107 122.484 97.5403 137.867 97.5156H255.254M101.654 283.711C108.664 283.711 109.933 276.263 109.933 271.556C109.933 233.065 109.996 205.856 109.996 196.095M110.61 172.641V176.969" stroke="#136544" stroke-width="5.92149" stroke-miterlimit="10" stroke-linecap="round"/>
<path d="M255.254 95.3359H254.038C243.383 95.9848 235.066 104.881 235.052 115.65V115.958V259.997C235.032 269.812 228.457 278.38 219.044 280.86C218.015 281.127 216.961 281.259 215.908 281.27V281.273H215.827H215.743H93.8906C98.7823 285.591 105.181 288.216 112.191 288.222H112.235H147.368H213.766C214.482 288.222 215.589 288.222 216.307 288.112C217.573 287.996 218.828 287.784 220.064 287.478C232.683 284.514 241.619 273.176 241.636 260.106V115.76V115.607C241.729 108.524 247.11 102.66 254.101 102.02C254.488 101.999 255.227 102.001 255.611 102.02L255.254 95.3359Z" fill="#136544"/>
</g>
<mask id="mask3_1766_6233" style="mask-type:luminance" maskUnits="userSpaceOnUse" x="82" y="251" width="135" height="38">
<path d="M216.009 251.757H82.4307V288.799H216.009V251.757Z" fill="white"/>
</mask>
<g mask="url(#mask3_1766_6233)">
<path d="M255.253 95.3359H254.037C243.382 95.986 235.068 104.881 235.053 115.65V115.958V259.997C235.033 269.812 228.459 278.381 219.045 280.86C216.908 281.417 214.663 281.417 212.527 280.86C203.084 278.346 196.512 269.718 196.538 259.866V255.483C196.551 253.668 195.103 252.185 193.303 252.174H172.65H156.045H130.446H103.643H87.6236C85.8254 252.174 84.3652 253.647 84.3652 255.462V260.107C84.3511 275.622 96.8122 288.209 112.192 288.222H112.234H147.366H213.764C214.481 288.222 215.589 288.222 216.306 288.112C217.573 287.996 218.83 287.785 220.065 287.478C232.684 284.515 241.619 273.177 241.634 260.107V115.761V115.607C241.727 108.525 247.11 102.659 254.103 102.021C254.508 101.999 254.913 101.999 255.319 102.021C262.872 102.033 268.992 108.207 269.005 115.826V131.451H272.263C274.062 131.451 275.523 129.979 275.523 128.164V115.826C275.57 104.557 266.554 95.3854 255.385 95.3359H255.253Z" fill="#136544"/>
</g>
<mask id="mask4_1766_6233" style="mask-type:luminance" maskUnits="userSpaceOnUse" x="0" y="0" width="378" height="378">
<path d="M0 0H378V378H0V0Z" fill="white"/>
</mask>
<g mask="url(#mask4_1766_6233)">
<mask id="mask5_1766_6233" style="mask-type:luminance" maskUnits="userSpaceOnUse" x="112" y="99" width="131" height="183">
<path d="M242.874 99.7991C235.22 99.7991 136.304 99.7991 136.304 99.7991L118.935 112.164L112.458 149.551V252.294C112.458 252.294 191.355 252.294 193.71 252.294C196.065 252.294 196.36 254.355 196.36 255.827C196.36 257.299 197.832 281.734 215.201 281.734C232.57 281.734 234.925 265.836 234.925 257.005C234.925 248.173 234.925 116.579 234.925 113.636C234.925 110.692 238.458 101.86 242.874 99.7991Z" fill="white"/>
</mask>
<g mask="url(#mask5_1766_6233)">
<path d="M260.839 233.335C278.136 217.486 279.335 190.644 263.518 173.382C247.7 156.12 220.856 154.975 203.559 170.825C186.262 186.675 185.061 213.518 200.879 230.78C216.696 248.041 243.542 249.185 260.839 233.335Z" fill="#21865C"/>
<path d="M260.839 233.335C278.136 217.486 279.335 190.644 263.518 173.382C247.7 156.12 220.856 154.975 203.559 170.825C186.262 186.675 185.061 213.518 200.879 230.78C216.696 248.041 243.542 249.185 260.839 233.335Z" stroke="#21865C" stroke-width="5.92149" stroke-miterlimit="10"/>
</g>
</g>
<path d="M136.251 223.513H168.11" stroke="#0F9A61" stroke-width="5.92149" stroke-miterlimit="10" stroke-linecap="round"/>
<path d="M136.251 193.839H168.11" stroke="#0F9A61" stroke-width="5.92149" stroke-miterlimit="10" stroke-linecap="round"/>
<path d="M136.25 164.163H208.464" stroke="#17573C" stroke-width="5.92149" stroke-miterlimit="10" stroke-linecap="round"/>
<path d="M136.25 132.369H216.809" stroke="#17573C" stroke-width="5.92149" stroke-miterlimit="10" stroke-linecap="round"/>
<path d="M262.988 220.368C265.208 218.155 268.8 218.158 271.017 220.372L299.029 248.338C301.239 250.545 301.242 254.126 299.035 256.338L299.025 256.347C296.806 258.558 293.214 258.557 290.996 256.342L262.984 228.377C260.773 226.169 260.771 222.588 262.978 220.378L262.988 220.368Z" fill="#E90000"/>
<path d="M268.964 226.152C286.261 210.302 287.46 183.461 271.643 166.199C255.825 148.937 228.981 147.792 211.684 163.642C194.387 179.492 193.186 206.335 209.004 223.597C224.821 240.858 251.667 242.002 268.964 226.152Z" fill="white"/>
<path d="M268.964 226.152C286.261 210.302 287.46 183.461 271.643 166.199C255.825 148.937 228.981 147.792 211.684 163.642C194.387 179.492 193.186 206.335 209.004 223.597C224.821 240.858 251.667 242.002 268.964 226.152Z" stroke="#E90000" stroke-width="5.92149" stroke-miterlimit="10"/>
<path d="M255.99 204.426L251.972 208.441L241.631 198.1L231.367 208.362L227.327 204.323L237.591 194.058L227.248 183.716L231.266 179.699L241.607 190.042L251.871 179.778L255.911 183.818L245.648 194.083L255.99 204.426Z" fill="#E90000"/>
</g>
</g>
<defs>
<clipPath id="clip0_1766_6233">
<rect width="378" height="378" fill="white"/>
</clipPath>
</defs>
</svg>
