<svg width="160" height="47" viewBox="0 0 160 47" fill="none" xmlns="http://www.w3.org/2000/svg">
<path d="M154.074 0.925885C156.818 0.925885 159.051 3.10268 159.051 5.77779V40.4445C159.051 43.1196 156.818 45.2964 154.074 45.2964H5.92592C3.18223 45.2964 0.949629 43.1196 0.949629 40.4445V5.77779C0.949629 3.10268 3.18223 0.925885 5.92592 0.925885H154.074ZM154.074 0H5.92592C2.66815 0 0 2.60145 0 5.77779V40.4445C0 43.6209 2.66815 46.2223 5.92592 46.2223H154.074C157.332 46.2223 160 43.6209 160 40.4445V5.77779C160 2.60145 157.332 0 154.074 0Z" fill="#F5F5F5"/>
<path d="M35.7072 22.8616C35.6729 19.1372 38.835 17.3253 38.9796 17.241C37.1887 14.6953 34.413 14.3474 33.4376 14.3197C31.1064 14.0805 28.845 15.6798 27.6575 15.6798C26.4462 15.6798 24.6175 14.3428 22.6465 14.3821C20.1102 14.4202 17.7375 15.8519 16.4361 18.0753C13.7505 22.6085 15.7534 29.2703 18.3265 32.9346C19.6136 34.7292 21.1176 36.7329 23.0862 36.6624C25.0121 36.585 25.7315 35.4652 28.0557 35.4652C30.3585 35.4652 31.0341 36.6624 33.0417 36.6173C35.1087 36.585 36.4101 34.8146 37.6521 33.0039C39.1395 30.947 39.7369 28.9213 39.7606 28.8173C39.712 28.8011 35.7464 27.3255 35.7072 22.8616Z" fill="#F5F5F5"/>
<path d="M31.9147 11.9092C32.9505 10.6461 33.6593 8.92787 33.4625 7.18414C31.9633 7.24886 30.0883 8.19524 29.0086 9.43053C28.0533 10.5191 27.2 12.3032 27.4204 13.9811C29.1046 14.1036 30.8338 13.1526 31.9147 11.9092Z" fill="#F5F5F5"/>
<path d="M58.1335 11.566C58.1335 12.9261 57.7151 13.9499 56.8796 14.6374C56.1056 15.2718 55.0058 15.5896 53.5812 15.5896C52.8748 15.5896 52.2704 15.5596 51.7643 15.4995V8.06812C52.4244 7.96406 53.1355 7.91091 53.9036 7.91091C55.2606 7.91091 56.2834 8.19865 56.9732 8.77413C57.7459 9.42474 58.1335 10.3549 58.1335 11.566ZM56.8238 11.5995C56.8238 10.7178 56.5844 10.0418 56.1056 9.57032C55.6268 9.09998 54.9276 8.86424 54.0067 8.86424C53.6156 8.86424 53.2825 8.88969 53.0063 8.94284V14.5924C53.1592 14.6155 53.4389 14.6259 53.8455 14.6259C54.796 14.6259 55.5296 14.3682 56.0463 13.8528C56.5631 13.3374 56.8238 12.5863 56.8238 11.5995Z" fill="#F5F5F5"/>
<path d="M65.0773 12.7538C65.0773 13.5915 64.8324 14.278 64.3414 14.8165C63.8272 15.37 63.1456 15.6461 62.2946 15.6461C61.4745 15.6461 60.8215 15.3815 60.3344 14.85C59.8484 14.3195 59.6055 13.6505 59.6055 12.8439C59.6055 12.0004 59.8555 11.3082 60.358 10.7708C60.8605 10.2335 61.5361 9.9643 62.3871 9.9643C63.2072 9.9643 63.8664 10.2289 64.3652 10.7593C64.8395 11.2746 65.0773 11.9403 65.0773 12.7538ZM63.7893 12.7931C63.7893 12.2904 63.6777 11.8594 63.4561 11.5C63.1954 11.0655 62.8244 10.8483 62.3421 10.8483C61.8431 10.8483 61.4638 11.0655 61.203 11.5C60.9803 11.8594 60.8701 12.2973 60.8701 12.815C60.8701 13.3177 60.9814 13.7487 61.203 14.1081C61.4721 14.5426 61.8467 14.7599 62.3302 14.7599C62.8043 14.7599 63.1764 14.5391 63.4443 14.0965C63.6742 13.7302 63.7893 13.2958 63.7893 12.7931Z" fill="#F5F5F5"/>
<path d="M74.3882 10.0752L72.64 15.5225H71.5024L70.7781 13.1571C70.5943 12.5666 70.4452 11.9796 70.3288 11.3971H70.3064C70.1984 11.9958 70.0493 12.5816 69.8571 13.1571L69.0884 15.5225H67.9373L66.2933 10.0752H67.5697L68.2015 12.6648C68.3544 13.2773 68.4804 13.8608 68.5807 14.4132H68.6032C68.6957 13.9579 68.8487 13.3778 69.0646 12.6764L69.8571 10.0764H70.8694L71.629 12.6209C71.8129 13.2415 71.962 13.8389 72.077 14.4143H72.1117C72.1959 13.8539 72.3225 13.2564 72.4909 12.6209L73.169 10.0764H74.3882V10.0752Z" fill="#F5F5F5"/>
<path d="M80.8275 15.5225H79.5851V12.4025C79.5851 11.4411 79.2104 10.9604 78.4591 10.9604C78.0908 10.9604 77.7932 11.0921 77.5619 11.3567C77.3337 11.6214 77.2174 11.9334 77.2174 12.2904V15.5213H75.975V11.6317C75.975 11.1534 75.9596 10.6345 75.93 10.0729H77.022L77.0798 10.9246H77.1139C77.2585 10.66 77.4745 10.4415 77.7579 10.267C78.094 10.0637 78.4713 9.96082 78.8839 9.96082C79.4052 9.96082 79.839 10.1249 80.1835 10.4542C80.6128 10.8575 80.8275 11.4596 80.8275 12.2592V15.5225Z" fill="#F5F5F5"/>
<path d="M84.2524 15.5226H83.012V7.5758H84.2524V15.5226Z" fill="#F5F5F5"/>
<path d="M91.5652 12.7538C91.5652 13.5915 91.3197 14.278 90.8293 14.8165C90.3151 15.37 89.6326 15.6461 88.7823 15.6461C87.9609 15.6461 87.3079 15.3815 86.822 14.85C86.3361 14.3195 86.0932 13.6505 86.0932 12.8439C86.0932 12.0004 86.3432 11.3082 86.8458 10.7708C87.3484 10.2335 88.0239 9.9643 88.8735 9.9643C89.6949 9.9643 90.353 10.2289 90.8531 10.7593C91.3267 11.2746 91.5652 11.9403 91.5652 12.7538ZM90.2759 12.7931C90.2759 12.2904 90.1641 11.8594 89.943 11.5C89.6833 11.0655 89.3112 10.8483 88.8298 10.8483C88.3298 10.8483 87.9506 11.0655 87.6909 11.5C87.4679 11.8594 87.358 12.2973 87.358 12.815C87.358 13.3177 87.4692 13.7487 87.6909 14.1081C87.9602 14.5426 88.3343 14.7599 88.8182 14.7599C89.2919 14.7599 89.6628 14.5391 89.9308 14.0965C90.1621 13.7302 90.2759 13.2958 90.2759 12.7931Z" fill="#F5F5F5"/>
<path d="M97.5764 15.5225H96.4613L96.3688 14.895H96.3341C95.9529 15.3954 95.4086 15.6461 94.7022 15.6461C94.1752 15.6461 93.7485 15.4809 93.4271 15.1527C93.1353 14.8546 92.9894 14.4837 92.9894 14.0434C92.9894 13.3778 93.2741 12.8705 93.8468 12.5192C94.4182 12.1679 95.2215 11.9958 96.2563 12.0038V11.9021C96.2563 11.1845 95.87 10.8263 95.0956 10.8263C94.5448 10.8263 94.0589 10.9615 93.6392 11.2296L93.3866 10.4346C93.9059 10.1214 94.5473 9.9643 95.3032 9.9643C96.7634 9.9643 97.4961 10.7154 97.4961 12.2176V14.2236C97.4961 14.768 97.5231 15.2013 97.5764 15.5225ZM96.2871 13.6505V12.8104C94.9169 12.7873 94.2318 13.1536 94.2318 13.9082C94.2318 14.1925 94.3102 14.4051 94.4702 14.5472C94.6302 14.6894 94.834 14.7599 95.0769 14.7599C95.3494 14.7599 95.6039 14.6755 95.8366 14.5079C96.0699 14.3392 96.2132 14.1254 96.2666 13.8631C96.2801 13.8042 96.2871 13.7326 96.2871 13.6505Z" fill="#F5F5F5"/>
<path d="M104.634 15.5226H103.532L103.474 14.6478H103.44C103.088 15.3134 102.488 15.6462 101.645 15.6462C100.972 15.6462 100.411 15.3885 99.9673 14.8731C99.5225 14.3577 99.3008 13.6887 99.3008 12.8671C99.3008 11.9854 99.5418 11.2712 100.025 10.7258C100.493 10.2174 101.067 9.96314 101.75 9.96314C102.5 9.96314 103.025 10.2093 103.324 10.7027H103.347V7.5758H104.59V14.055C104.59 14.5854 104.604 15.0742 104.634 15.5226ZM103.347 13.2253V12.3171C103.347 12.1598 103.335 12.0328 103.313 11.9357C103.243 11.6445 103.092 11.3995 102.863 11.2019C102.633 11.0043 102.354 10.905 102.033 10.905C101.57 10.905 101.206 11.084 100.94 11.4434C100.676 11.8028 100.542 12.2616 100.542 12.822C100.542 13.3605 100.668 13.7973 100.924 14.1335C101.192 14.4918 101.555 14.6709 102.009 14.6709C102.417 14.6709 102.742 14.5219 102.991 14.2226C103.23 13.9464 103.347 13.6136 103.347 13.2253Z" fill="#F5F5F5"/>
<path d="M115.257 12.7538C115.257 13.5915 115.012 14.278 114.521 14.8165C114.007 15.37 113.327 15.6461 112.474 15.6461C111.656 15.6461 111.003 15.3815 110.514 14.85C110.028 14.3195 109.785 13.6505 109.785 12.8439C109.785 12.0004 110.035 11.3082 110.538 10.7708C111.04 10.2335 111.716 9.9643 112.568 9.9643C113.387 9.9643 114.047 10.2289 114.545 10.7593C115.019 11.2746 115.257 11.9403 115.257 12.7538ZM113.97 12.7931C113.97 12.2904 113.859 11.8594 113.637 11.5C113.375 11.0655 113.005 10.8483 112.522 10.8483C112.024 10.8483 111.645 11.0655 111.382 11.5C111.16 11.8594 111.049 12.2973 111.049 12.815C111.049 13.3177 111.161 13.7487 111.382 14.1081C111.652 14.5426 112.026 14.7599 112.51 14.7599C112.984 14.7599 113.357 14.5391 113.625 14.0965C113.854 13.7302 113.97 13.2958 113.97 12.7931Z" fill="#F5F5F5"/>
<path d="M121.936 15.5225H120.695V12.4025C120.695 11.4411 120.321 10.9604 119.568 10.9604C119.199 10.9604 118.901 11.0921 118.671 11.3567C118.442 11.6214 118.327 11.9334 118.327 12.2904V15.5213H117.083V11.6317C117.083 11.1534 117.069 10.6345 117.04 10.0729H118.13L118.188 10.9246H118.223C118.368 10.66 118.584 10.4415 118.866 10.267C119.204 10.0637 119.579 9.96082 119.993 9.96082C120.513 9.96082 120.947 10.1249 121.292 10.4542C121.722 10.8575 121.936 11.4596 121.936 12.2592V15.5225Z" fill="#F5F5F5"/>
<path d="M130.295 10.9823H128.927V13.6285C128.927 14.301 129.17 14.6373 129.651 14.6373C129.874 14.6373 130.059 14.6188 130.205 14.5807L130.237 15.4994C129.991 15.5895 129.669 15.6346 129.272 15.6346C128.781 15.6346 128.4 15.4889 128.124 15.1978C127.846 14.9066 127.708 14.4166 127.708 13.7291V10.9823H126.892V10.0752H127.708V9.07678L128.926 8.71854V10.074H130.293V10.9823H130.295Z" fill="#F5F5F5"/>
<path d="M136.87 15.5226H135.627V12.4257C135.627 11.4492 135.253 10.9604 134.502 10.9604C133.926 10.9604 133.533 11.2435 133.317 11.8098C133.28 11.9287 133.259 12.0744 133.259 12.2454V15.5214H132.018V7.5758H133.259V10.8587H133.283C133.673 10.2613 134.235 9.96314 134.961 9.96314C135.475 9.96314 135.9 10.1272 136.238 10.4566C136.659 10.8668 136.87 11.4769 136.87 12.2835V15.5226Z" fill="#F5F5F5"/>
<path d="M143.653 12.5412C143.653 12.7585 143.637 12.9411 143.607 13.0901H139.882C139.899 13.6286 140.076 14.0388 140.421 14.3231C140.736 14.5773 141.143 14.7044 141.64 14.7044C142.192 14.7044 142.694 14.6189 143.147 14.4467L143.342 15.288C142.811 15.5121 142.188 15.6242 141.466 15.6242C140.601 15.6242 139.92 15.3758 139.427 14.8789C138.931 14.382 138.686 13.7153 138.686 12.8787C138.686 12.057 138.915 11.3729 139.376 10.8275C139.857 10.2451 140.507 9.95388 141.329 9.95388C142.133 9.95388 142.743 10.2451 143.155 10.8275C143.488 11.2898 143.653 11.8618 143.653 12.5412ZM142.468 12.228C142.477 11.8687 142.396 11.559 142.227 11.2978C142.012 10.9616 141.683 10.7929 141.239 10.7929C140.834 10.7929 140.503 10.957 140.25 11.2863C140.044 11.5486 139.922 11.8618 139.882 12.228H142.468Z" fill="#F5F5F5"/>
<path d="M63.5795 36.4046H60.8879L59.4136 31.8876H54.2888L52.8844 36.4046H50.2639L55.3412 21.0265H58.4773L63.5795 36.4046ZM58.9691 29.9925L57.6358 25.9769C57.4948 25.5667 57.2304 24.6006 56.8405 23.0799H56.7931C56.6378 23.734 56.3878 24.7 56.044 25.9769L54.7345 29.9925H58.9691Z" fill="#F5F5F5"/>
<path d="M76.6364 30.7239C76.6364 32.6098 76.1139 34.1005 75.0682 35.1948C74.1324 36.1689 72.9697 36.6554 71.5815 36.6554C70.0833 36.6554 69.0074 36.1308 68.3519 35.0815H68.3043V40.9229H65.7778V28.9663C65.7778 27.7807 65.7457 26.5639 65.684 25.3159H67.9065L68.0472 27.0735H68.0948C68.9374 25.7492 70.2164 25.0883 71.9324 25.0883C73.2744 25.0883 74.394 25.6048 75.2899 26.6391C76.1884 27.6744 76.6364 29.0357 76.6364 30.7239ZM74.0623 30.8141C74.0623 29.7348 73.8136 28.845 73.3129 28.1447C72.7666 27.4144 72.0333 27.0492 71.1136 27.0492C70.4902 27.0492 69.9233 27.2527 69.4175 27.6537C68.9104 28.058 68.5781 28.5862 68.4232 29.2402C68.3448 29.5453 68.3056 29.7949 68.3056 29.9913V31.8402C68.3056 32.6468 68.5595 33.3274 69.0666 33.8832C69.5737 34.439 70.2331 34.7164 71.0435 34.7164C71.9954 34.7164 72.7358 34.3582 73.266 33.644C73.7969 32.9287 74.0623 31.9858 74.0623 30.8141Z" fill="#F5F5F5"/>
<path d="M89.7174 30.7239C89.7174 32.6098 89.1949 34.1005 88.1486 35.1948C87.2134 36.1689 86.0507 36.6554 84.6625 36.6554C83.165 36.6554 82.0885 36.1308 81.4342 35.0815H81.3866V40.9229H78.8601V28.9663C78.8601 27.7807 78.828 26.5639 78.7663 25.3159H80.9888L81.1295 27.0735H81.1771C82.0184 25.7492 83.2974 25.0883 85.0147 25.0883C86.3554 25.0883 87.475 25.6048 88.3735 26.6391C89.2681 27.6744 89.7174 29.0357 89.7174 30.7239ZM87.1433 30.8141C87.1433 29.7348 86.8933 28.845 86.3933 28.1447C85.847 27.4144 85.1156 27.0492 84.1946 27.0492C83.5699 27.0492 83.005 27.2527 82.4972 27.6537C81.9901 28.058 81.6598 28.5862 81.5042 29.2402C81.4271 29.5453 81.3866 29.7949 81.3866 29.9913V31.8402C81.3866 32.6468 81.6405 33.3274 82.1457 33.8832C82.6528 34.4379 83.3115 34.7164 84.1246 34.7164C85.0764 34.7164 85.8174 34.3582 86.347 33.644C86.8779 32.9287 87.1433 31.9858 87.1433 30.8141Z" fill="#F5F5F5"/>
<path d="M104.343 32.0921C104.343 33.4002 103.877 34.4645 102.942 35.2861C101.914 36.184 100.484 36.6323 98.6459 36.6323C96.9485 36.6323 95.5879 36.3134 94.5576 35.6744L95.1431 33.6209C96.2524 34.275 97.4697 34.6032 98.7963 34.6032C99.7481 34.6032 100.489 34.3928 101.021 33.9745C101.55 33.5562 101.815 32.9946 101.815 32.2943C101.815 31.6703 101.597 31.1446 101.16 30.7181C100.724 30.2918 99.9981 29.8954 98.9833 29.5291C96.2216 28.5249 94.8423 27.0539 94.8423 25.1195C94.8423 23.8553 95.3257 22.8188 96.2942 22.0122C97.2589 21.2045 98.5463 20.8012 100.156 20.8012C101.591 20.8012 102.783 21.045 103.735 21.5315L103.103 23.5398C102.214 23.0684 101.209 22.8326 100.084 22.8326C99.1954 22.8326 98.5013 23.0464 98.0032 23.4717C97.5822 23.8518 97.3714 24.3152 97.3714 24.8641C97.3714 25.4719 97.6124 25.9746 98.0957 26.3698C98.5167 26.735 99.2809 27.1302 100.39 27.5565C101.747 28.0893 102.744 28.7121 103.385 29.4262C104.024 30.1381 104.343 31.029 104.343 32.0921Z" fill="#F5F5F5"/>
<path d="M112.697 27.1647H109.912V32.5485C109.912 33.9178 110.403 34.6019 111.386 34.6019C111.838 34.6019 112.213 34.5638 112.509 34.4875L112.578 36.3584C112.081 36.5398 111.425 36.6311 110.614 36.6311C109.616 36.6311 108.836 36.3341 108.273 35.7413C107.713 35.1474 107.43 34.1512 107.43 32.7519V27.1624H105.771V25.3136H107.43V23.2832L109.912 22.5529V25.3136H112.697V27.1647Z" fill="#F5F5F5"/>
<path d="M125.264 30.769C125.264 32.4734 124.764 33.8728 123.765 34.9671C122.719 36.0937 121.33 36.6553 119.599 36.6553C117.93 36.6553 116.601 36.1157 115.61 35.0364C114.62 33.9571 114.124 32.5947 114.124 30.9527C114.124 29.2344 114.634 27.8269 115.656 26.7326C116.677 25.6371 118.054 25.0894 119.786 25.0894C121.454 25.0894 122.798 25.6291 123.81 26.7095C124.78 27.7576 125.264 29.1107 125.264 30.769ZM122.642 30.8487C122.642 29.826 122.418 28.949 121.964 28.2175C121.434 27.3323 120.677 26.8909 119.696 26.8909C118.68 26.8909 117.908 27.3335 117.379 28.2175C116.924 28.9501 116.701 29.841 116.701 30.8949C116.701 31.9176 116.924 32.7947 117.379 33.525C117.925 34.4101 118.688 34.8515 119.673 34.8515C120.638 34.8515 121.395 34.4009 121.941 33.5018C122.407 32.7565 122.642 31.8702 122.642 30.8487Z" fill="#F5F5F5"/>
<path d="M133.477 27.4826C133.227 27.4375 132.961 27.4144 132.68 27.4144C131.792 27.4144 131.105 27.7414 130.621 28.3966C130.2 28.9744 129.989 29.7047 129.989 30.5865V36.4047H127.464L127.487 28.808C127.487 27.53 127.455 26.3663 127.392 25.3171H129.594L129.685 27.4387H129.755C130.022 26.7095 130.443 26.1225 131.019 25.6822C131.582 25.2859 132.19 25.0883 132.846 25.0883C133.079 25.0883 133.29 25.1045 133.477 25.1333V27.4826Z" fill="#F5F5F5"/>
<path d="M144.778 30.3356C144.778 30.777 144.748 31.1491 144.686 31.453H137.105C137.134 32.5485 137.501 33.3863 138.205 33.9641C138.843 34.4806 139.67 34.7394 140.684 34.7394C141.806 34.7394 142.831 34.5649 143.752 34.2148L144.147 35.925C143.071 36.3826 141.8 36.6103 140.334 36.6103C138.571 36.6103 137.186 36.1042 136.179 35.0931C135.174 34.0819 134.67 32.7242 134.67 31.0209C134.67 29.3487 135.139 27.9563 136.076 26.8458C137.057 25.6602 138.384 25.0674 140.052 25.0674C141.692 25.0674 142.932 25.6602 143.775 26.8458C144.443 27.7876 144.778 28.9524 144.778 30.3356ZM142.369 29.6966C142.385 28.9663 142.22 28.3353 141.878 27.8026C141.441 27.1174 140.768 26.7753 139.864 26.7753C139.038 26.7753 138.366 27.1093 137.853 27.7795C137.432 28.3122 137.182 28.9512 137.105 29.6954H142.369V29.6966Z" fill="#F5F5F5"/>
</svg>
