<svg width="16" height="16" viewBox="0 0 16 16" fill="none" xmlns="http://www.w3.org/2000/svg">
<path d="M8.00016 14.6668C11.6821 14.6668 14.6668 11.6821 14.6668 8.00016C14.6668 4.31826 11.6821 1.3335 8.00016 1.3335C4.31826 1.3335 1.3335 4.31826 1.3335 8.00016C1.3335 11.6821 4.31826 14.6668 8.00016 14.6668Z" fill="url(#paint0_linear_828_14184)"/>
<path d="M10.6865 7.64646L8.6865 5.64646C8.49317 5.45313 8.17317 5.45313 7.97984 5.64646C7.7865 5.8398 7.7865 6.1598 7.97984 6.35313L9.1265 7.4998H5.6665C5.39317 7.4998 5.1665 7.72646 5.1665 7.9998C5.1665 8.27313 5.39317 8.4998 5.6665 8.4998H9.1265L7.97984 9.64647C7.7865 9.8398 7.7865 10.1598 7.97984 10.3531C8.07984 10.4531 8.2065 10.4998 8.33317 10.4998C8.45984 10.4998 8.5865 10.4531 8.6865 10.3531L10.6865 8.35313C10.8798 8.1598 10.8798 7.8398 10.6865 7.64646Z" fill="white"/>
<defs>
<linearGradient id="paint0_linear_828_14184" x1="8.00016" y1="1.3335" x2="8.00016" y2="14.6668" gradientUnits="userSpaceOnUse">
<stop stop-color="#10BB7F"/>
<stop offset="1" stop-color="#16533D"/>
</linearGradient>
</defs>
</svg>
