<svg width="44" height="44" viewBox="0 0 44 44" fill="none" xmlns="http://www.w3.org/2000/svg">
<path d="M40.3333 15.6198V7.2965C40.3333 4.7115 39.16 3.6665 36.245 3.6665H28.8383C25.9233 3.6665 24.75 4.7115 24.75 7.2965V15.6015C24.75 18.2048 25.9233 19.2315 28.8383 19.2315H36.245C39.16 19.2498 40.3333 18.2048 40.3333 15.6198Z" stroke="white" stroke-width="3" stroke-linecap="round" stroke-linejoin="round"/>
<path d="M40.3333 36.245V28.8383C40.3333 25.9233 39.16 24.75 36.245 24.75H28.8383C25.9233 24.75 24.75 25.9233 24.75 28.8383V36.245C24.75 39.16 25.9233 40.3333 28.8383 40.3333H36.245C39.16 40.3333 40.3333 39.16 40.3333 36.245Z" stroke="white" stroke-width="3" stroke-linecap="round" stroke-linejoin="round"/>
<path d="M19.2498 15.6198V7.2965C19.2498 4.7115 18.0765 3.6665 15.1615 3.6665H7.75484C4.83984 3.6665 3.6665 4.7115 3.6665 7.2965V15.6015C3.6665 18.2048 4.83984 19.2315 7.75484 19.2315H15.1615C18.0765 19.2498 19.2498 18.2048 19.2498 15.6198Z" stroke="white" stroke-width="3" stroke-linecap="round" stroke-linejoin="round"/>
<path d="M19.2498 36.245V28.8383C19.2498 25.9233 18.0765 24.75 15.1615 24.75H7.75484C4.83984 24.75 3.6665 25.9233 3.6665 28.8383V36.245C3.6665 39.16 4.83984 40.3333 7.75484 40.3333H15.1615C18.0765 40.3333 19.2498 39.16 19.2498 36.245Z" stroke="white" stroke-width="3" stroke-linecap="round" stroke-linejoin="round"/>
</svg>
