<svg width="24" height="24" viewBox="0 0 24 24" fill="none" xmlns="http://www.w3.org/2000/svg">
<circle cx="12" cy="12" r="12" fill="#0052B4"/>
<path d="M21.536 4.71436L14.2502 12.0002L21.536 19.286C20.8888 20.1317 20.1317 20.8888 19.286 21.536L12.0002 14.2502L4.71436 21.536C3.86863 20.8888 3.11151 20.1317 2.46436 19.286L9.75017 12.0002L2.46436 4.71436C3.11151 3.86863 3.86863 3.11151 4.71436 2.46436L12.0002 9.75017L19.286 2.46436C20.1317 3.11151 20.8888 3.86863 21.536 4.71436Z" fill="#EEEEEE"/>
<path d="M13.4999 0.0929064C14.0106 0.156585 14.5113 0.252349 14.9999 0.37812L14.9999 9.00009L23.6219 9.00009C23.7477 9.48874 23.8434 9.98943 23.9071 10.5001L22.4999 12.0001L23.9071 13.5001C23.8434 14.0107 23.7476 14.5114 23.6219 15.0001L14.9999 15.0001L14.9999 23.622C14.5113 23.7478 14.0106 23.8435 13.4999 23.9072L11.9999 22.5001L10.4999 23.9072C9.98928 23.8435 9.48858 23.7478 8.99994 23.622L8.99993 15.0001L0.377994 15.0001C0.252223 14.5114 0.156458 14.0107 0.0927787 13.5001L1.49994 12.0001L0.0927729 10.5001C0.15645 9.98943 0.252213 9.48874 0.377982 9.00009L8.99993 9.00009L8.99993 0.37812C9.48858 0.252349 9.98928 0.156585 10.4999 0.0929065L11.9999 1.50009L13.4999 0.0929064Z" fill="#EEEEEE"/>
<path d="M13.5 0.0928396C13.0162 0.0325159 12.5236 0.000987459 12.0237 2.23626e-05L11.9763 2.23647e-05C11.4764 0.000987505 10.9837 0.032516 10.5 0.0928397L10.5 10.5L0.0928372 10.5C0.0315634 10.9914 -5.46741e-07 11.492 -5.24537e-07 12C-5.02331e-07 12.508 0.0315655 13.0086 0.092843 13.5L10.5 13.5L10.5 23.9072C10.9914 23.9684 11.492 24 12 24C12.508 24 13.0086 23.9684 13.5 23.9072L13.5 13.5L23.9072 13.5C23.9684 13.0086 24 12.508 24 12C24 11.492 23.9684 10.9914 23.9072 10.5L13.5 10.5L13.5 0.0928396Z" fill="#D80027"/>
<path fill-rule="evenodd" clip-rule="evenodd" d="M19.7024 2.79785C19.9739 3.02532 20.2351 3.26458 20.4854 3.51484L15.0001 9.00013V7.50013L19.7024 2.79785ZM2.79785 4.29785C3.02532 4.02637 3.26458 3.76511 3.51484 3.51484L9.00013 9.00013H7.50013L2.79785 4.29785ZM20.4854 20.4854C20.7357 20.2351 20.9749 19.9739 21.2024 19.7024L16.5001 15.0001H15.0001L20.4854 20.4854ZM4.29785 21.2024L9.00013 16.5001V15.0001L3.51484 20.4854C3.76511 20.7357 4.02637 20.9749 4.29785 21.2024Z" fill="#D80027"/>
</svg>
