<svg width="160" height="47" viewBox="0 0 160 47" fill="none" xmlns="http://www.w3.org/2000/svg">
<path d="M154.074 0.926743C156.818 0.926743 159.05 3.10554 159.05 5.78313V40.4819C159.05 43.1595 156.818 45.3383 154.074 45.3383H5.92592C3.18222 45.3383 0.949629 43.1595 0.949629 40.4819V5.78313C0.949629 3.10554 3.18222 0.926743 5.92592 0.926743H154.074ZM154.074 0H5.92592C2.66815 0 0 2.60385 0 5.78313V40.4819C0 43.6612 2.66815 46.2651 5.92592 46.2651H154.074C157.332 46.2651 160 43.6612 160 40.4819V5.78313C160 2.60385 157.332 0 154.074 0Z" fill="#F5F5F5"/>
<path d="M11.4785 8.71955C11.1303 9.07521 10.9289 9.62892 10.9289 10.346V35.9248C10.9289 36.6419 11.1303 37.1957 11.4785 37.5514L11.5644 37.6294L26.2518 23.3017V22.9634L11.5644 8.6357L11.4785 8.71955Z" fill="#F5F5F5"/>
<path d="M32.92 28.08L28.0296 23.3017V22.9633L32.9259 18.1851L33.0356 18.2472L38.8341 21.467C40.4889 22.3807 40.4889 23.8843 38.8341 24.8039L33.0356 28.0178L32.92 28.08Z" fill="#F5F5F5"/>
<path d="M32.1467 28.9076L27.1408 24.0223L12.3674 38.4411C12.9171 39.005 13.8133 39.0729 14.8326 38.509L32.1467 28.9076Z" fill="#F5F5F5"/>
<path d="M32.1467 17.3576L14.8326 7.75615C13.8133 7.19807 12.9171 7.26599 12.3674 7.82985L27.1408 22.2429L32.1467 17.3576Z" fill="#F5F5F5"/>
<path d="M56.1986 11.8483C56.1986 12.8141 55.9023 13.5876 55.3186 14.1644C54.6475 14.8483 53.7734 15.1924 52.7023 15.1924C51.6786 15.1924 50.8045 14.8425 50.0875 14.1529C49.3689 13.4531 49.0104 12.5943 49.0104 11.5664C49.0104 10.5384 49.3689 9.67962 50.0875 8.98564C50.8045 8.29025 51.6786 7.94037 52.7023 7.94037C53.2119 7.94037 53.6978 8.04299 54.1615 8.23383C54.6237 8.42615 55 8.68639 55.2726 9.00736L54.6534 9.61748C54.1778 9.06949 53.5304 8.79916 52.7023 8.79916C51.9556 8.79916 51.3082 9.05362 50.7585 9.56684C50.2149 10.0815 49.9423 10.7481 49.9423 11.5664C49.9423 12.3847 50.2149 13.057 50.7585 13.5717C51.3082 14.0792 51.9556 14.3394 52.7023 14.3394C53.4949 14.3394 54.1615 14.0792 54.6875 13.5659C55.0341 13.2262 55.2312 12.7577 55.283 12.1592H52.7023V11.3235H56.1452C56.1867 11.5042 56.1986 11.6792 56.1986 11.8483Z" fill="#F5F5F5"/>
<path d="M61.6608 8.95081H58.4267V11.1484H61.3423V11.9841H58.4267V14.1817H61.6608V15.0333H57.5111V8.09928H61.6608V8.95081Z" fill="#F5F5F5"/>
<path d="M65.5158 15.0333H64.6002V8.95081H62.6162V8.09928H67.5007V8.95081H65.5158V15.0333Z" fill="#F5F5F5"/>
<path d="M71.0355 15.0333V8.09928H71.9499V15.0333H71.0355Z" fill="#F5F5F5"/>
<path d="M76.0013 15.0333H75.0933V8.95081H73.102V8.09928H77.9926V8.95081H76.0013V15.0333Z" fill="#F5F5F5"/>
<path d="M87.2398 14.1413C86.5394 14.8425 85.6713 15.1924 84.6355 15.1924C83.5939 15.1924 82.7258 14.8425 82.0254 14.1413C81.3263 13.4415 80.978 12.5827 80.978 11.5664C80.978 10.55 81.3263 9.69118 82.0254 8.99142C82.7258 8.29025 83.5939 7.94037 84.6355 7.94037C85.6655 7.94037 86.5336 8.29025 87.234 8.9972C87.9396 9.70275 88.2872 10.5558 88.2872 11.5664C88.2872 12.5827 87.9396 13.4415 87.2398 14.1413ZM82.702 13.5601C83.2296 14.0792 83.8708 14.3394 84.6355 14.3394C85.3944 14.3394 86.0414 14.0792 86.5632 13.5601C87.0888 13.0411 87.3555 12.3746 87.3555 11.5664C87.3555 10.7582 87.0888 10.0917 86.5632 9.57263C86.0414 9.05362 85.3944 8.79338 84.6355 8.79338C83.8708 8.79338 83.2296 9.05362 82.702 9.57263C82.1764 10.0917 81.9097 10.7582 81.9097 11.5664C81.9097 12.3746 82.1764 13.0411 82.702 13.5601Z" fill="#F5F5F5"/>
<path d="M89.5717 15.0333V8.09928H90.6827L94.1378 13.492H94.1777L94.1378 12.159V8.09928H95.0522V15.0333H94.098L90.4803 9.37446H90.4398L90.4803 10.7133V15.0333H89.5717Z" fill="#F5F5F5"/>
<path d="M80.7524 25.1596C77.9688 25.1596 75.6948 27.2271 75.6948 30.0796C75.6948 32.909 77.9688 34.9982 80.7524 34.9982C83.5425 34.9982 85.8165 32.909 85.8165 30.0796C85.8165 27.2271 83.5425 25.1596 80.7524 25.1596ZM80.7524 33.0608C79.2251 33.0608 77.911 31.8304 77.911 30.0796C77.911 28.3056 79.2251 27.0969 80.7524 27.0969C82.2798 27.0969 83.6003 28.3056 83.6003 30.0796C83.6003 31.8304 82.2798 33.0608 80.7524 33.0608ZM69.7169 25.1596C66.9276 25.1596 64.6593 27.2271 64.6593 30.0796C64.6593 32.909 66.9276 34.9982 69.7169 34.9982C72.5051 34.9982 74.7746 32.909 74.7746 30.0796C74.7746 27.2271 72.5051 25.1596 69.7169 25.1596ZM69.7169 33.0608C68.1883 33.0608 66.8697 31.8304 66.8697 30.0796C66.8697 28.3056 68.1883 27.0969 69.7169 27.0969C71.2443 27.0969 72.5584 28.3056 72.5584 30.0796C72.5584 31.8304 71.2443 33.0608 69.7169 33.0608ZM56.5852 26.6676V28.7582H61.7008C61.5511 29.9264 61.1511 30.7852 60.5378 31.3837C59.7912 32.1066 58.6282 32.909 56.5852 32.909C53.437 32.909 50.9719 30.4295 50.9719 27.3572C50.9719 24.2849 53.437 21.8054 56.5852 21.8054C58.2874 21.8054 59.526 22.4546 60.44 23.296L61.9497 21.8227C60.6712 20.6314 58.9704 19.7162 56.5852 19.7162C52.2681 19.7162 48.64 23.1442 48.64 27.3572C48.64 31.5702 52.2681 34.9982 56.5852 34.9982C58.9186 34.9982 60.6712 34.2521 62.0489 32.8526C63.4608 31.4748 63.9008 29.5374 63.9008 27.9731C63.9008 27.4873 63.8593 27.0406 63.7852 26.6676H56.5852ZM110.283 28.2883C109.867 27.1881 108.582 25.1596 105.966 25.1596C103.373 25.1596 101.215 27.1534 101.215 30.0796C101.215 32.8353 103.351 34.9982 106.215 34.9982C108.53 34.9982 109.867 33.6203 110.416 32.8179L108.698 31.7003C108.125 32.5186 107.344 33.0608 106.215 33.0608C105.094 33.0608 104.289 32.5591 103.773 31.5702L110.516 28.8478L110.283 28.2883ZM103.409 29.9264C103.351 28.0295 104.918 27.0579 106.041 27.0579C106.922 27.0579 107.668 27.4873 107.917 28.1018L103.409 29.9264ZM97.929 34.6989H100.145V20.241H97.929V34.6989ZM94.2991 26.2555H94.2252C93.7272 25.6801 92.7775 25.1596 91.5746 25.1596C89.0506 25.1596 86.7425 27.3225 86.7425 30.0955C86.7425 32.8526 89.0506 34.9982 91.5746 34.9982C92.7775 34.9982 93.7272 34.4733 94.2252 33.8806H94.2991V34.5861C94.2991 36.4671 93.2697 37.4777 91.6087 37.4777C90.2548 37.4777 89.4149 36.5234 89.0679 35.721L87.1409 36.5061C87.6961 37.8102 89.1675 39.415 91.6087 39.415C94.2072 39.415 96.4003 37.923 96.4003 34.2926V25.4589H94.2991V26.2555ZM91.7642 33.0608C90.2368 33.0608 88.9587 31.8131 88.9587 30.0955C88.9587 28.362 90.2368 27.0969 91.7642 27.0969C93.2697 27.0969 94.4565 28.362 94.4565 30.0955C94.4565 31.8131 93.2697 33.0608 91.7642 33.0608ZM120.659 20.241H115.359V34.6989H117.569V29.2208H120.659C123.114 29.2208 125.522 27.4873 125.522 24.7302C125.522 21.9746 123.108 20.241 120.659 20.241ZM120.717 27.2097H117.569V22.2521H120.717C122.367 22.2521 123.31 23.5895 123.31 24.7302C123.31 25.8493 122.367 27.2097 120.717 27.2097ZM134.381 25.1321C132.784 25.1321 131.123 25.8203 130.44 27.3456L132.402 28.1481C132.824 27.3456 133.6 27.0854 134.421 27.0854C135.568 27.0854 136.731 27.7577 136.748 28.9446V29.0965C136.348 28.8709 135.492 28.5369 134.439 28.5369C132.326 28.5369 130.173 29.6719 130.173 31.7899C130.173 33.7273 131.904 34.975 133.849 34.975C135.336 34.975 136.157 34.3201 136.673 33.5582H136.748V34.6757H138.883V29.1297C138.883 26.5664 136.921 25.1321 134.381 25.1321ZM134.114 33.055C133.391 33.055 132.384 32.7052 132.384 31.8304C132.384 30.7114 133.64 30.282 134.728 30.282C135.701 30.282 136.157 30.4916 136.748 30.7678C136.575 32.1066 135.394 33.055 134.114 33.055ZM146.661 25.4487L144.12 31.7162H144.044L141.417 25.4487H139.034L142.981 34.2073L140.729 39.081H143.039L149.12 25.4487H146.661ZM126.736 34.6989H128.952V20.241H126.736V34.6989Z" fill="#F5F5F5"/>
</svg>
