<svg width="51" height="42" viewBox="0 0 51 42" fill="none" xmlns="http://www.w3.org/2000/svg">
<path fill-rule="evenodd" clip-rule="evenodd" d="M26.0628 0C28.7373 0.0451298 31.1548 0.821071 33.2634 2.46758C34.8593 3.71229 36.0503 5.26272 36.8586 7.1014C37.2427 7.97488 37.5117 8.88475 37.6654 9.8252C37.8087 10.6943 37.8575 11.5678 37.7895 12.4456C37.6343 14.4517 36.9782 16.2919 35.8434 17.9646C34.6022 19.7887 32.9989 21.2241 31.0041 22.2155C30.6036 22.412 30.1928 22.5766 29.7481 22.6464C29.6845 22.6581 29.6165 22.661 29.5412 22.661C29.5752 22.5984 29.6313 22.5678 29.6771 22.5314C30.2549 22.0554 30.8504 21.5983 31.4119 21.1004C32.0798 20.5064 32.6073 19.8033 33.0447 19.0346C33.7052 17.8831 34.184 16.6631 34.4633 15.3703C34.5874 14.7909 34.6701 14.2072 34.7204 13.6161C34.7588 13.1255 34.7765 12.6349 34.7544 12.1414C34.7056 11.0379 34.5549 9.95331 34.0983 8.92697C33.9476 8.58486 33.7584 8.26603 33.491 7.99817C32.99 7.50028 32.4078 7.48136 31.8685 7.94285C31.5626 8.20344 31.3291 8.51934 31.1297 8.86437C30.6539 9.69709 30.1943 10.5371 29.7008 11.3611C28.9161 12.6582 28.0975 13.932 27.1474 15.1185C26.6642 15.7212 26.1514 16.3006 25.5485 16.7941C25.1643 17.11 24.7565 17.3881 24.2585 17.5045C23.7798 17.6166 23.3764 17.4856 23.0409 17.1406C22.7543 16.8465 22.5312 16.5088 22.3051 16.171C21.547 15.0486 20.7816 13.9306 19.9438 12.8605C18.5104 11.0321 16.919 9.34915 15.1916 7.78854C14.4705 7.13779 13.7435 6.49869 12.9736 5.90764C12.2186 5.33114 11.4384 4.78231 10.6729 4.22037C10.6537 4.20872 10.6389 4.19416 10.6094 4.17232C10.6655 4.16068 10.704 4.18688 10.7409 4.19853C12.2762 4.68477 13.7435 5.33551 15.165 6.07942C17.1451 7.11304 19.0158 8.31262 20.7328 9.73931C21.3771 10.278 21.943 10.8908 22.54 11.4819C22.9996 11.939 23.4562 12.4034 23.9128 12.8605C23.9202 12.8678 23.9275 12.8722 23.9349 12.8795C23.9541 12.8314 23.9157 12.8096 23.8965 12.779C22.6523 11.099 21.3579 9.46125 19.9216 7.93266C18.6582 6.59187 17.2736 5.3719 15.7945 4.2655C14.1233 3.03243 12.3693 1.91292 10.605 0.813794C10.5665 0.78759 10.5252 0.761385 10.4956 0.717711C10.7187 0.773031 10.9404 0.829805 11.1635 0.888037C13.3889 1.49365 15.527 2.32928 17.6061 3.31486C17.6933 3.35562 17.7421 3.34834 17.813 3.28137C18.4543 2.6612 19.1562 2.11091 19.9334 1.65816C21.1185 0.96374 22.3819 0.473134 23.7354 0.219825C24.2748 0.119375 24.8215 0.05241 25.3683 0.0262056C25.3875 0.0262056 25.4141 0.0334832 25.4244 0.00436722H26.0657L26.0628 0Z" fill="white"/>
<path fill-rule="evenodd" clip-rule="evenodd" d="M11.5006 7.88158C11.9084 8.00387 12.2882 8.18294 12.662 8.3751C13.593 8.85843 14.4352 9.47132 15.2347 10.1439C16.4419 11.1615 17.5236 12.3029 18.5313 13.5112C19.938 15.2014 21.1911 16.9963 22.2772 18.9034C22.9791 20.1365 23.6086 21.4001 24.077 22.7424C24.1154 22.8574 24.145 22.9724 24.1908 23.0845C24.2203 23.1588 24.1981 23.1733 24.1272 23.166C23.7696 23.1253 23.415 23.0627 23.0603 22.987C21.4881 22.6521 20.0311 22.0392 18.719 21.1177C16.7729 19.7464 15.3854 17.9484 14.5328 15.7516C14.2387 14.9932 14.0318 14.2129 13.9062 13.4136C13.8013 12.7556 13.7437 12.0903 13.7585 11.425C13.7659 11.0348 13.7925 10.6403 13.8604 10.2545C13.8796 10.1541 13.8486 10.0798 13.7851 10.0056C13.4304 9.58924 13.03 9.21364 12.6236 8.84969C12.269 8.53378 11.907 8.22952 11.5331 7.93982C11.5183 7.92526 11.5036 7.9107 11.4873 7.89469C11.4947 7.88741 11.4991 7.88304 11.5021 7.88013L11.5006 7.88158Z" fill="white"/>
<path d="M5.54862 29.0605C4.98415 29.1712 4.84821 29.2949 4.6103 29.8175C4.19212 30.7187 3.638 32.0551 2.95976 33.7482H2.51941C1.95495 32.3565 1.44515 31.0768 0.892509 29.7957C0.688591 29.3051 0.542302 29.1828 0 29.0605V28.7039H2.7913V29.0605C2.27117 29.1712 2.21501 29.2498 2.3613 29.6399C2.64354 30.4188 3.05137 31.499 3.21983 31.9561C3.43409 31.4553 3.79611 30.4421 4.05618 29.6734C4.16996 29.3066 4.12415 29.161 3.51388 29.0605V28.7039H5.54862V29.0605Z" fill="white"/>
<path d="M13.7748 26.7793C12.8941 26.8579 12.8261 26.9234 12.8261 27.8697V32.1556C12.8261 33.0902 12.9163 33.1572 13.7748 33.2358V33.6259H10.3274V33.2358C11.2317 33.1572 11.3101 33.08 11.3101 32.1439V30.0738H8.2247V32.1439C8.2247 33.0902 8.31484 33.1572 9.15119 33.2358V33.6259H5.7836V33.2358C6.60814 33.1572 6.71009 33.0917 6.71009 32.1439V27.8682C6.71009 26.922 6.60814 26.855 5.73779 26.7778V26.3877H9.12755V26.7778C8.31336 26.8565 8.22322 26.922 8.22322 27.8682V29.5046H11.3086V27.8682C11.3086 26.922 11.2184 26.855 10.3821 26.7778V26.3877H13.7718V26.7778L13.7748 26.7793Z" fill="white"/>
<path d="M17.9685 33.7598C17.6641 33.7598 17.4262 33.6593 17.2784 33.5254C17.1203 33.3915 17.0405 33.2473 16.9844 33.1134C16.5544 33.3915 16.0239 33.7598 15.8096 33.7598C14.8491 33.7598 14.2847 33.0246 14.2847 32.3345C14.2847 31.7551 14.5566 31.4771 15.1432 31.266C15.8096 31.0214 16.68 30.7535 16.94 30.5308V30.1974C16.94 29.4957 16.6681 29.1056 16.25 29.1056C16.1037 29.1056 15.9781 29.1725 15.8776 29.3065C15.7416 29.4622 15.6397 29.7301 15.5495 30.0751C15.4698 30.3648 15.3116 30.4536 15.0752 30.4536C14.7812 30.4536 14.3748 30.1858 14.3748 29.8975C14.3748 29.6966 14.5108 29.5525 14.7708 29.3633C15.2008 29.0735 16.0032 28.6834 16.646 28.5728C17.11 28.5728 17.4483 28.6732 17.7542 28.8959C18.2404 29.2628 18.3423 29.7418 18.3423 30.3648V32.2021C18.3423 32.7145 18.5226 32.8586 18.7044 32.8586C18.8403 32.8586 18.9644 32.8135 19.0885 32.7698L19.2023 33.1265L17.97 33.7612L17.9685 33.7598ZM16.94 30.9646C16.7361 31.0651 16.544 31.1874 16.3179 31.3097C15.9677 31.4873 15.7874 31.6882 15.7874 32.0667C15.7874 32.6898 16.2056 32.9241 16.4657 32.9241C16.6238 32.9241 16.7479 32.879 16.94 32.7465V30.9646Z" fill="white"/>
<path d="M22.7262 33.6259V33.2693C23.2005 33.1907 23.2567 33.1586 23.2567 32.3681V30.4756C23.2567 29.6734 22.8843 29.4289 22.4765 29.4289C22.1942 29.4289 21.9342 29.5512 21.6401 29.7739V32.4686C21.6401 33.1586 21.7081 33.1921 22.1706 33.2707V33.6274H19.4473V33.2707C20.1477 33.1703 20.2038 33.1601 20.2038 32.4133V30.1087C20.2038 29.4405 20.1477 29.3968 19.5936 29.2964V28.9732C20.2378 28.8946 20.9722 28.7388 21.6386 28.5496V29.3735C21.8647 29.2178 22.0908 29.0402 22.339 28.8829C22.6774 28.6718 22.8932 28.5714 23.2212 28.5714C24.1359 28.5714 24.7018 29.2396 24.7018 30.3533V32.4569C24.7018 33.1586 24.7698 33.1805 25.3579 33.2693V33.6259H22.7247H22.7262Z" fill="white"/>
<path d="M31.6649 33.3362C31.3945 33.3814 30.3321 33.5138 29.4381 33.7701V33.1237L28.7599 33.5575C28.4776 33.7249 28.3195 33.7584 28.1836 33.7584C27.2231 33.7584 25.8784 32.9796 25.8784 31.3199C25.8784 29.8059 27.2113 28.5699 28.9756 28.5699C29.0657 28.5699 29.1899 28.5918 29.4396 28.6253V27.2786C29.4396 26.6774 29.3716 26.6221 28.683 26.5435V26.1984C29.4056 26.1096 30.3099 25.9641 30.8862 25.7981V32.2225C30.8862 32.8573 30.9424 32.9024 31.4167 32.9577L31.6649 32.9796V33.3362ZM29.4381 29.6181C29.2578 29.228 28.952 29.0387 28.6239 29.0387C28.3535 29.0387 27.4832 29.3284 27.4832 31.0201C27.495 32.39 28.2974 32.9126 28.816 32.9126C29.0199 32.9126 29.1884 32.8908 29.4381 32.735V29.6181Z" fill="white"/>
<path d="M32.061 33.626V33.2693C32.7171 33.1907 32.7836 33.147 32.7836 32.3565V30.1524C32.7836 29.4172 32.7038 29.3837 32.1615 29.2949V28.9718C32.8398 28.8931 33.586 28.749 34.2184 28.5714V32.3565C34.2184 33.1252 34.2746 33.1805 34.9528 33.2693V33.626H32.0596H32.061ZM32.6137 27.0909C32.6137 26.6454 32.9861 26.312 33.4161 26.312C33.8682 26.312 34.2184 26.6454 34.2184 27.0909C34.2184 27.5363 33.8682 27.8697 33.4042 27.8697C32.9861 27.8697 32.6137 27.513 32.6137 27.0909Z" fill="white"/>
<path d="M39.8584 32.5573C39.3383 33.2808 38.6039 33.7598 37.9153 33.7598C36.3667 33.7598 35.4624 32.6024 35.4624 31.3883C35.4624 30.5759 35.8806 29.7854 36.6032 29.2613C37.3376 28.7271 38.0838 28.5713 38.5241 28.5713C38.9305 28.5713 39.3043 28.6936 39.4964 28.8493C39.6545 28.96 39.7003 29.0939 39.7003 29.2497C39.7003 29.5729 39.4063 29.8626 39.2142 29.8626C39.1344 29.8626 39.0664 29.8291 38.9659 29.7403C38.4916 29.34 38.1414 29.1609 37.8252 29.1609C37.373 29.1609 36.8765 29.5845 36.8765 30.7754C36.8765 32.2559 37.9508 32.7465 38.4355 32.7465C38.9201 32.7465 39.2378 32.6359 39.6442 32.2909L39.8584 32.5573Z" fill="white"/>
<path d="M44.0847 33.7598C43.7803 33.7598 43.5424 33.6593 43.3946 33.5254C43.2365 33.3915 43.1567 33.2473 43.1006 33.1134C42.6706 33.3915 42.1401 33.7598 41.9258 33.7598C40.9653 33.7598 40.4009 33.0246 40.4009 32.3345C40.4009 31.7551 40.6713 31.4771 41.2594 31.266C41.9258 31.0214 42.7962 30.7535 43.0562 30.5308V30.1974C43.0562 29.4957 42.7858 29.1056 42.3662 29.1056C42.2199 29.1056 42.0943 29.1725 41.9938 29.3065C41.8579 29.4622 41.7559 29.7301 41.6658 30.0751C41.586 30.3648 41.4279 30.4536 41.1914 30.4536C40.8974 30.4536 40.491 30.1858 40.491 29.8975C40.491 29.6966 40.627 29.5525 40.887 29.3633C41.317 29.0735 42.1194 28.6834 42.7637 28.5728C43.2276 28.5728 43.566 28.6732 43.8719 28.8959C44.3581 29.2628 44.46 29.7418 44.46 30.3648V32.2021C44.46 32.7145 44.6403 32.8586 44.822 32.8586C44.958 32.8586 45.0821 32.8135 45.2062 32.7698L45.32 33.1265L44.0876 33.7612L44.0847 33.7598ZM43.0562 30.9646C42.8523 31.0651 42.6602 31.1874 42.4341 31.3097C42.0839 31.4873 41.9037 31.6882 41.9037 32.0667C41.9037 32.6898 42.3218 32.9241 42.5819 32.9241C42.74 32.9241 42.8641 32.879 43.0562 32.7465V30.9646Z" fill="white"/>
<path d="M48.3326 28.7824C48.5587 28.6485 48.7626 28.5713 48.9547 28.5713C50.2875 28.5713 50.9998 29.6515 50.9998 30.7201C50.9998 32.3564 49.7009 33.4366 48.2543 33.7598C47.9721 33.7598 47.7238 33.6928 47.5421 33.6259V35.0395C47.5421 35.6858 47.5982 35.7513 48.4804 35.83V36.1866H45.3389V35.83C46.0614 35.7746 46.1072 35.6858 46.1072 35.0511V30.0635C46.1072 29.4404 46.0053 29.3837 45.4512 29.3065V28.9731C46.0614 28.8727 46.7958 28.6732 47.5421 28.4607V29.273L48.3326 28.7824ZM47.5421 32.7684C47.7563 32.9693 48.1863 33.2022 48.4686 33.2022C49.0906 33.2022 49.5192 32.4569 49.5192 31.2879C49.5192 29.9179 48.8188 29.4172 48.2646 29.4172C47.9706 29.4172 47.7445 29.5278 47.5421 29.6836V32.7669V32.7684Z" fill="white"/>
<path d="M7.89062 37.2537H8.78609C9.42148 37.2537 9.83523 37.4953 9.83523 38.0587C9.83523 38.6221 9.3742 38.8769 8.7654 38.8769H8.30141V40.1478H7.89062V37.2537ZM8.30141 38.5333H8.73732C9.13925 38.5333 9.42148 38.4023 9.42148 38.0587C9.42148 37.7151 9.13186 37.5972 8.74471 37.5972H8.30141V38.5333Z" fill="white"/>
<path d="M10.7899 40.2017C10.1885 40.2017 9.73193 39.7722 9.73193 39.1753C9.73193 38.5784 10.1885 38.1577 10.7899 38.1577C11.3913 38.1577 11.8524 38.5784 11.8524 39.1753C11.8524 39.7722 11.3913 40.2017 10.7899 40.2017ZM10.7899 38.4765C10.3703 38.4765 10.1339 38.807 10.1339 39.1753C10.1339 39.5436 10.3703 39.8785 10.7899 39.8785C11.2096 39.8785 11.446 39.5436 11.446 39.1753C11.446 38.807 11.214 38.4765 10.7899 38.4765Z" fill="white"/>
<path d="M12.3279 38.2102L12.7712 39.6893H12.7801L13.2485 38.2102H13.6593L14.1366 39.6893H14.1454L14.5887 38.2102H14.9995L14.3479 40.1479H13.9415L13.4554 38.6921H13.4465L12.9648 40.1479H12.5584L11.9023 38.2102H12.325H12.3279Z" fill="white"/>
<path d="M17.0121 39.2932H15.4517C15.4635 39.6237 15.7458 39.8814 16.0901 39.8814C16.356 39.8814 16.5511 39.7503 16.6619 39.5873L16.9353 39.8042C16.724 40.0735 16.4373 40.2002 16.0886 40.2002C15.4916 40.2002 15.0513 39.7911 15.0513 39.1826C15.0513 38.5741 15.4916 38.1562 16.0679 38.1562C16.6442 38.1562 17.0136 38.5449 17.0136 39.1622C17.0136 39.203 17.0136 39.2481 17.0092 39.2932H17.0121ZM16.622 39.0079C16.6132 38.7007 16.4314 38.4605 16.0709 38.4605C15.7354 38.4605 15.4783 38.7051 15.4532 39.0079H16.6235H16.622Z" fill="white"/>
<path d="M17.3359 38.2101H17.7054C17.7142 38.3077 17.7216 38.4547 17.7216 38.5377H17.7334C17.8413 38.3135 18.0689 38.1577 18.3348 38.1577C18.3895 38.1577 18.4427 38.1621 18.4885 38.1737L18.4723 38.5289C18.422 38.5173 18.3555 38.5086 18.2935 38.5086C17.9196 38.5086 17.7423 38.807 17.7423 39.1302V40.1478H17.3522V38.6279C17.3522 38.526 17.3478 38.3382 17.3359 38.2116V38.2101Z" fill="white"/>
<path d="M20.4003 39.2932H18.8399C18.8517 39.6237 19.134 39.8814 19.4782 39.8814C19.7442 39.8814 19.9393 39.7503 20.0501 39.5873L20.3235 39.8042C20.1122 40.0735 19.8255 40.2002 19.4768 40.2002C18.8798 40.2002 18.4395 39.7911 18.4395 39.1826C18.4395 38.5741 18.8798 38.1562 19.4561 38.1562C20.0324 38.1562 20.4018 38.5449 20.4018 39.1622C20.4018 39.203 20.4018 39.2481 20.3974 39.2932H20.4003ZM20.0102 39.0079C20.0013 38.7007 19.8196 38.4605 19.459 38.4605C19.1236 38.4605 18.8665 38.7051 18.8414 39.0079H20.0117H20.0102Z" fill="white"/>
<path d="M21.5989 40.2017C20.9931 40.2017 20.6074 39.7445 20.6074 39.1753C20.6074 38.6061 21.0064 38.1577 21.5945 38.1577C21.9137 38.1577 22.159 38.3135 22.2964 38.5013H22.3053V37.0586H22.6954V40.1493H22.3186V39.8421H22.3097C22.1604 40.075 21.8782 40.2017 21.6004 40.2017H21.5989ZM21.6654 39.8785C22.0644 39.8785 22.3289 39.5509 22.3289 39.1797C22.3289 38.8085 22.0629 38.4765 21.6654 38.4765C21.2384 38.4765 21.0138 38.8114 21.0138 39.1753C21.0138 39.5393 21.2384 39.8785 21.6654 39.8785Z" fill="white"/>
<path d="M24.3827 39.8421V40.1493H24.0059V37.0586H24.396V38.5013H24.4078C24.5408 38.3135 24.7846 38.1577 25.1097 38.1577C25.6948 38.1577 26.0923 38.6032 26.0923 39.1753C26.0923 39.7475 25.7066 40.2017 25.1008 40.2017C24.823 40.2017 24.5452 40.075 24.3915 39.8421H24.3827ZM25.0343 38.4765C24.6353 38.4765 24.3708 38.807 24.3708 39.1797C24.3708 39.5524 24.6368 39.8785 25.0343 39.8785C25.4614 39.8785 25.6904 39.5393 25.6904 39.1753C25.6904 38.8114 25.4628 38.4765 25.0343 38.4765Z" fill="white"/>
<path d="M27.1741 39.7315H27.183L27.7267 38.2117H28.142L27.1874 40.6064C27.0588 40.9296 26.8933 41.1291 26.5077 41.1291C26.4249 41.1291 26.3377 41.1203 26.2506 41.1L26.2875 40.7608C26.3496 40.7811 26.4205 40.7928 26.4826 40.7928C26.6865 40.7928 26.7648 40.6778 26.8475 40.4696L26.9717 40.1464L26.1294 38.2087H26.5653L27.1756 39.7286L27.1741 39.7315Z" fill="white"/>
<path d="M30.0614 39.6252H30.0733L30.9569 37.2551H31.4002L30.2461 40.1493H29.8649L28.7197 37.2551H29.1763L30.06 39.6252H30.0614Z" fill="white"/>
<path d="M33.7085 37.8506C33.5341 37.6628 33.2475 37.5361 32.912 37.5361C32.2234 37.5361 31.792 38.0631 31.792 38.6964C31.792 39.3297 32.2234 39.8567 32.9253 39.8567C33.1987 39.8567 33.4396 39.8028 33.6095 39.714V38.9089H32.9578V38.5654H34.0158V39.9673C33.7085 40.1304 33.3435 40.2206 32.912 40.2206C31.9959 40.2206 31.3442 39.5873 31.3442 38.6964C31.3442 37.8054 32.0166 37.1794 32.9076 37.1794C33.3716 37.1794 33.7543 37.3265 33.9952 37.555L33.7085 37.8491V37.8506Z" fill="white"/>
<path d="M37.8605 39.698C37.633 40.0052 37.2547 40.2206 36.7405 40.2206C35.8406 40.2206 35.1934 39.5873 35.1934 38.6964C35.1934 37.8054 35.8657 37.1794 36.7567 37.1794C37.1586 37.1794 37.5946 37.3352 37.8103 37.6293L37.4867 37.8739C37.3448 37.6773 37.0596 37.5347 36.7567 37.5347C36.077 37.5347 35.6411 38.0617 35.6411 38.6949C35.6411 39.3282 36.0681 39.8596 36.7449 39.8596C37.0729 39.8596 37.3596 39.7242 37.5325 39.4752L37.8605 39.6965V39.698Z" fill="white"/>
<path d="M38.9306 40.2017C38.3292 40.2017 37.8726 39.7722 37.8726 39.1753C37.8726 38.5784 38.3292 38.1577 38.9306 38.1577C39.532 38.1577 39.993 38.5784 39.993 39.1753C39.993 39.7722 39.532 40.2017 38.9306 40.2017ZM38.9306 38.4765C38.5109 38.4765 38.2745 38.807 38.2745 39.1753C38.2745 39.5436 38.5109 39.8785 38.9306 39.8785C39.3502 39.8785 39.5866 39.5436 39.5866 39.1753C39.5866 38.807 39.3547 38.4765 38.9306 38.4765Z" fill="white"/>
<path d="M40.3076 38.2101H40.677C40.6859 38.3077 40.6933 38.4547 40.6933 38.5377H40.7051C40.813 38.3135 41.0405 38.1577 41.3065 38.1577C41.3612 38.1577 41.4144 38.1621 41.4602 38.1737L41.4439 38.5289C41.3937 38.5173 41.3272 38.5086 41.2651 38.5086C40.8913 38.5086 40.714 38.807 40.714 39.1302V40.1478H40.3239V38.6279C40.3239 38.526 40.3194 38.3382 40.3076 38.2116V38.2101Z" fill="white"/>
<path d="M42.0083 41.129H41.6182V38.2101H41.9994V38.5129H42.0112C42.1398 38.3091 42.3969 38.1577 42.7205 38.1577C43.3057 38.1577 43.7031 38.6032 43.7031 39.1753C43.7031 39.7474 43.3175 40.2017 42.7116 40.2017C42.4338 40.2017 42.1634 40.075 42.0186 39.8581H42.0068V41.129H42.0083ZM42.6466 38.4765C42.2476 38.4765 41.9831 38.807 41.9831 39.1797C41.9831 39.5524 42.2491 39.8785 42.6466 39.8785C43.0737 39.8785 43.3027 39.5393 43.3027 39.1753C43.3027 38.8114 43.0751 38.4765 42.6466 38.4765Z" fill="white"/>
</svg>
