<svg width="48" height="48" viewBox="0 0 48 48" fill="none" xmlns="http://www.w3.org/2000/svg">
<path d="M48 24.0276C47.985 37.2883 37.1883 48.0401 23.9249 48.0001C10.7065 47.96 -0.0150108 37.1932 1.5776e-05 23.9725C0.0150424 10.7118 10.8092 -0.0374605 24.0726 9.81252e-05C37.2935 0.0376568 48.0125 10.802 48 24.0276ZM35.1573 6.61543C34.9794 6.49524 34.8091 6.36504 34.6263 6.25487C30.6593 3.87615 26.3542 2.91966 21.7786 3.42044C6.33623 5.11309 -1.79316 22.4802 6.77451 35.438C8.23459 37.6439 9.92759 39.7422 12.3068 40.929C18.6656 44.1015 26.5771 39.3741 27.0354 32.2805C27.2633 28.755 25.8558 25.9807 23.5317 23.4317C18.4351 17.843 21.18 8.58601 28.4529 6.52779C30.6893 5.89431 32.8882 6.01199 35.1573 6.61543ZM31.5409 20.9979C33.9902 20.9779 35.9937 18.9547 35.9962 16.5034C35.9962 14.012 33.9501 11.9813 31.4557 12.0013C29.0064 12.0214 27.0028 14.0395 27.0003 16.4934C27.0003 18.9848 29.0464 21.0154 31.5383 20.9954L31.5409 20.9979Z" fill="#16533D"/>
<path d="M17.0003 27.5045C19.4847 27.5045 21.5183 29.5628 21.4958 32.0491C21.4733 34.488 19.4397 36.5011 16.9978 36.4986C14.5185 36.4986 12.4798 34.4354 12.5024 31.9515C12.5249 29.5102 14.5535 27.502 17.0003 27.5045Z" fill="#16533D"/>
</svg>
