<svg width="216" height="54" viewBox="0 0 216 54" fill="none" xmlns="http://www.w3.org/2000/svg">
<g clip-path="url(#clip0_471_1515)">
<path d="M138.476 28.4072V32.9233C137.331 33.1612 136.205 33.3408 135.109 33.462C134.009 33.5832 132.708 33.6415 131.204 33.6415C129.269 33.6415 127.639 33.4754 126.311 33.1388C124.986 32.8066 123.922 32.214 123.119 31.3655C122.32 30.5171 121.741 29.3185 121.381 27.7652C121.022 26.212 120.843 24.2188 120.843 21.7812C120.843 19.3436 121.022 17.5165 121.381 16.0127C121.741 14.5088 122.32 13.3416 123.119 12.5201C123.918 11.6941 124.982 11.124 126.311 10.8007C127.639 10.4775 129.269 10.3159 131.204 10.3159C132.708 10.3159 134.009 10.3698 135.109 10.4775C136.209 10.5853 137.331 10.7693 138.476 11.0342V15.6939L138.368 15.7657C137.363 15.5278 136.398 15.3527 135.464 15.245C134.53 15.1373 133.385 15.0834 132.025 15.0834C130.925 15.0834 130.023 15.1597 129.318 15.3168C128.613 15.474 128.057 15.7792 127.653 16.2326C127.244 16.686 126.966 17.3549 126.809 18.2393C126.652 19.1236 126.575 20.3088 126.575 21.7857C126.575 23.3389 126.652 24.5869 126.809 25.5297C126.966 26.4724 127.244 27.1861 127.653 27.662C128.057 28.1423 128.613 28.4611 129.318 28.6317C130.023 28.7978 130.925 28.883 132.025 28.883C133.363 28.883 134.503 28.8426 135.446 28.7573C136.389 28.6721 137.34 28.5149 138.297 28.2725L138.476 28.4162V28.4072Z" fill="#BFBFBF"/>
<path d="M172.383 33.3181H166.65V10.6299H177.473C180.315 10.6299 182.389 11.2673 183.691 12.5468C184.993 13.8262 185.643 15.7071 185.643 18.1941C185.643 20.0571 185.177 21.6552 184.247 22.9795C183.318 24.3038 182.084 25.1343 180.557 25.471L180.521 25.5788C181.118 25.9603 181.774 26.5933 182.492 27.4777C183.21 28.362 183.92 29.3227 184.624 30.3642C185.329 31.4057 185.958 32.3798 186.505 33.2866V33.3225H179.839L175.969 27.5899C175.633 27.0871 175.368 26.728 175.161 26.5125C174.959 26.297 174.717 26.1668 174.443 26.1175C174.169 26.0681 173.734 26.0456 173.137 26.0456H172.383V33.3225V33.3181ZM176.54 15.2896H172.383V21.3814H176.54C177.734 21.3814 178.564 21.1435 179.031 20.6631C179.498 20.1873 179.731 19.4107 179.731 18.3333C179.731 17.2559 179.498 16.4837 179.031 16.0034C178.564 15.5275 177.734 15.2851 176.54 15.2851V15.2896Z" fill="#BFBFBF"/>
<path d="M195.502 33.3181H189.77V10.6299H199.879C202.151 10.6299 203.964 10.9037 205.329 11.4559C206.689 12.0036 207.672 12.9014 208.269 14.1449C208.866 15.3884 209.167 17.0718 209.167 19.1997C209.167 21.2063 208.866 22.8359 208.269 24.0928C207.672 25.3498 206.694 26.2746 205.329 26.8716C203.969 27.4687 202.151 27.7695 199.879 27.7695H195.507V33.327L195.502 33.3181ZM198.941 15.3255H195.498V23.0693H198.941C200.638 23.0693 201.774 22.782 202.344 22.2074C202.918 21.6328 203.206 20.6317 203.206 19.1952C203.206 17.7587 202.918 16.8474 202.344 16.2368C201.769 15.6263 200.633 15.321 198.941 15.321V15.3255Z" fill="#BFBFBF"/>
<path d="M162.543 16.4882C162.197 14.9933 161.604 13.7947 160.769 12.8879C159.934 11.9811 158.799 11.3212 157.367 10.9172C155.935 10.5131 154.13 10.3066 151.953 10.3066C149.062 10.3066 146.808 10.6792 145.197 11.42C143.585 12.1607 142.449 13.3772 141.794 15.0741C141.138 16.771 140.806 19.065 140.806 21.956C140.806 24.1287 140.986 25.9648 141.345 27.4597C141.704 28.9546 142.301 30.1532 143.136 31.06C143.971 31.9668 145.107 32.6267 146.539 33.0307C147.814 33.3943 149.385 33.5919 151.243 33.6323V31.6122C151.243 31.0555 151.216 30.5033 151.158 29.9512C151.127 29.6549 151.037 29.3721 150.902 29.1207L150.853 29.0309C150.601 28.5595 150.175 28.2184 149.677 28.0298C147.185 27.0916 145.434 24.645 145.547 21.7989C145.672 18.5263 148.357 15.8238 151.629 15.6712C155.297 15.5006 158.327 18.423 158.327 22.0548C158.327 24.7931 156.603 27.1275 154.179 28.0343C153.686 28.2184 153.264 28.564 153.017 29.0309L152.967 29.1207C152.833 29.3766 152.738 29.6594 152.711 29.9512C152.658 30.5033 152.626 31.0555 152.626 31.6122V33.6323C154.503 33.5919 156.083 33.3943 157.367 33.0307C158.799 32.6267 159.934 31.9668 160.769 31.06C161.604 30.1532 162.197 28.9501 162.543 27.4597C162.888 25.9648 163.063 24.1332 163.063 21.956C163.063 19.7788 162.888 17.9831 162.543 16.4882Z" fill="#BFBFBF"/>
<path d="M149.465 26.0585C149.685 25.8969 149.928 25.8655 150.125 25.9822C150.318 26.0989 150.336 26.292 150.188 26.485C149.946 26.3414 149.703 26.1977 149.465 26.0585Z" fill="#BFBFBF"/>
<path d="M150.664 26.7592C150.781 26.5347 150.969 26.4405 151.225 26.4899C151.463 26.5392 151.58 26.7143 151.544 26.9298C151.261 26.8759 150.974 26.8176 150.664 26.7592Z" fill="#BFBFBF"/>
<path d="M153.703 26.4989C153.614 26.3238 153.569 26.1443 153.784 25.9916C153.968 25.8615 154.206 25.8929 154.458 26.059C154.22 26.1981 153.977 26.3418 153.703 26.4989Z" fill="#BFBFBF"/>
<path d="M153.209 26.7592C152.904 26.8176 152.617 26.8759 152.33 26.9298C152.285 26.7188 152.406 26.5393 152.639 26.4899C152.895 26.436 153.088 26.5303 153.205 26.7592H153.209Z" fill="#BFBFBF"/>
<path d="M148.913 26.6107C148.725 26.4087 148.55 26.2156 148.366 26.0226C148.563 25.9194 148.761 25.9777 148.909 26.1079C149.084 26.2605 149.102 26.4311 148.909 26.6152L148.913 26.6107Z" fill="#BFBFBF"/>
<path d="M147.378 24.5774C147.602 24.519 147.791 24.5864 147.912 24.748C148.047 24.923 148.015 25.0936 147.804 25.2283C147.661 25.0128 147.526 24.8018 147.378 24.5819V24.5774Z" fill="#BFBFBF"/>
<path d="M149.519 27.0151C149.649 26.8535 149.86 26.8311 150.085 26.8984C150.332 26.9747 150.412 27.1318 150.376 27.3428C150.08 27.2261 149.806 27.1229 149.524 27.0151H149.519Z" fill="#BFBFBF"/>
<path d="M155.472 26.0232C155.279 26.2341 155.108 26.4182 154.924 26.6202C154.74 26.4855 154.749 26.3194 154.875 26.1668C155.014 25.9962 155.225 25.9468 155.472 26.0232Z" fill="#BFBFBF"/>
<path d="M153.537 27.347C153.474 27.145 153.569 27.0104 153.78 26.9206C154.009 26.8263 154.206 26.8757 154.381 27.0148C154.098 27.1271 153.829 27.2303 153.537 27.347Z" fill="#BFBFBF"/>
<path d="M156.432 24.5865C156.284 24.8154 156.15 25.0219 156.006 25.2419C155.813 25.1342 155.768 24.986 155.853 24.8199C155.957 24.6179 156.163 24.5461 156.432 24.5865Z" fill="#BFBFBF"/>
<path d="M152.415 27.5806H151.472C151.508 27.3876 151.67 27.2978 151.899 27.2888C152.163 27.2753 152.339 27.3741 152.415 27.5806Z" fill="#BFBFBF"/>
<path d="M156.863 23.0645C157.074 23.3293 157.043 23.5493 156.796 23.7199C156.594 23.5044 156.612 23.271 156.863 23.0645Z" fill="#BFBFBF"/>
<path d="M147.068 23.7151C146.826 23.5445 146.799 23.3111 146.996 23.0776C147.252 23.2258 147.284 23.4996 147.068 23.7151Z" fill="#BFBFBF"/>
<path d="M212.996 11.8289C212.561 11.8289 212.166 11.757 211.802 11.6089C211.439 11.4608 211.124 11.2543 210.855 10.9849C210.586 10.7156 210.379 10.4013 210.236 10.0377C210.087 9.67408 210.016 9.27455 210.016 8.84359C210.016 8.41263 210.087 8.0131 210.236 7.64948C210.384 7.28585 210.59 6.97161 210.855 6.70226C211.124 6.43292 211.439 6.22641 211.802 6.08276C212.166 5.93911 212.565 5.86279 212.996 5.86279C213.427 5.86279 213.795 5.93462 214.155 6.08276C214.514 6.2309 214.832 6.4374 215.106 6.70226C215.38 6.96712 215.596 7.28585 215.748 7.64948C215.901 8.0131 215.982 8.41263 215.982 8.84359C215.982 9.27455 215.91 9.67408 215.762 10.0377C215.614 10.4013 215.407 10.7156 215.142 10.9849C214.873 11.2543 214.559 11.4608 214.195 11.6089C213.831 11.757 213.432 11.8289 213.001 11.8289H212.996ZM212.996 11.4024C213.342 11.4024 213.67 11.3396 213.971 11.2139C214.276 11.0882 214.541 10.9131 214.774 10.6797C215.008 10.4507 215.187 10.1814 215.317 9.8716C215.448 9.56185 215.51 9.22068 215.51 8.84808C215.51 8.49792 215.448 8.16573 215.322 7.85598C215.196 7.54622 215.021 7.27688 214.797 7.04344C214.572 6.81 214.307 6.62595 214.002 6.49576C213.697 6.36109 213.36 6.29824 212.992 6.29824C212.624 6.29824 212.287 6.36109 211.977 6.48678C211.668 6.61248 211.403 6.78756 211.178 7.02099C210.954 7.24994 210.779 7.51929 210.653 7.82904C210.527 8.13879 210.465 8.47997 210.465 8.85257C210.465 9.20272 210.527 9.53492 210.653 9.84467C210.779 10.1544 210.954 10.4238 211.178 10.6572C211.403 10.8906 211.668 11.0747 211.977 11.2049C212.287 11.3396 212.624 11.4024 212.992 11.4024H212.996ZM211.883 10.6303V7.07935H212.925C213.369 7.07935 213.692 7.16465 213.899 7.33972C214.105 7.5148 214.209 7.77517 214.209 8.12981C214.209 8.3857 214.146 8.58771 214.015 8.73585C213.885 8.88399 213.737 8.99173 213.576 9.05907L214.518 10.6348H213.818L213.005 9.22966H212.503V10.6348H211.883V10.6303ZM212.907 8.71789C213.118 8.71789 213.284 8.66402 213.4 8.55628C213.522 8.44854 213.58 8.30938 213.58 8.14328C213.58 7.95474 213.526 7.81557 213.418 7.73028C213.311 7.64499 213.136 7.60009 212.898 7.60009H212.498V8.72238H212.902L212.907 8.71789Z" fill="#BFBFBF"/>
<path d="M52.945 5.40527L28.0482 48.5954L3.15587 5.40527L0 10.8237L24.8879 54.0003H24.9327H31.1682H31.2131L56.1368 10.7608L52.945 5.40527Z" fill="url(#paint0_linear_471_1515)"/>
<path d="M15.6264 5.40494H46.8035L49.901 0H6.22607L28.0658 37.8435H28.1152L43.6925 10.8189H24.9324L28.0523 16.2328H34.2922L28.0927 26.9888L15.6264 5.40494Z" fill="url(#paint1_linear_471_1515)"/>
<path d="M86.4022 10.6655L79.3407 33.3178H71.4533L64.751 10.6655H71.166C71.5475 11.8596 71.9561 13.2243 72.3825 14.7507C72.8135 16.2815 73.2355 17.8392 73.653 19.4283C74.0705 21.0175 74.4431 22.4989 74.7663 23.8726C75.0895 25.2463 75.3319 26.3865 75.5025 27.2933H75.6461C75.8122 26.3865 76.0591 25.2463 76.3824 23.8726C76.7056 22.4989 77.0737 21.022 77.4957 19.4463C77.9132 17.8706 78.3396 16.3174 78.7661 14.7866C79.1971 13.2558 79.6011 11.8821 79.9827 10.6655H86.3977H86.4022Z" fill="#BFBFBF"/>
<path d="M104.215 26.616C104.215 25.8259 104.251 25.1122 104.323 24.4657L104.251 24.358C103.582 24.4523 102.855 24.5196 102.065 24.5555C101.275 24.5914 100.547 24.5959 99.8786 24.5735V19.9137L109.234 19.8778V32.0659C108.134 32.5686 106.886 32.9547 105.49 33.2285C104.094 33.5024 102.316 33.6415 100.166 33.6415C97.2973 33.6415 95.0527 33.2555 93.4277 32.4789C91.8026 31.7022 90.6534 30.4498 89.989 28.7169C89.3201 26.9841 88.9834 24.6722 88.9834 21.7812C88.9834 19.4379 89.2527 17.5165 89.7914 16.0127C90.3301 14.5088 91.1157 13.3416 92.1572 12.5201C93.1942 11.6941 94.4691 11.124 95.973 10.8007C97.4769 10.4775 99.2007 10.3159 101.136 10.3159C102.28 10.3159 103.434 10.3653 104.592 10.4596C105.75 10.5538 106.904 10.7334 108.049 10.9983V15.7298L107.941 15.8017C106.94 15.5637 105.939 15.3976 104.947 15.2989C103.955 15.2046 102.958 15.1552 101.953 15.1552C100.494 15.1552 99.2232 15.3034 98.1368 15.6041C97.0504 15.9049 96.2064 16.5199 95.6094 17.4492C95.0123 18.3829 94.7116 19.8284 94.7116 21.7857C94.7116 23.743 94.8732 25.1975 95.1964 26.212C95.5196 27.2265 96.1301 27.9224 97.0235 28.2905C97.9213 28.6631 99.2052 28.8471 100.875 28.8471C101.091 28.8471 101.423 28.8426 101.881 28.8292C102.334 28.8157 102.788 28.7978 103.241 28.7753C103.694 28.7529 104.018 28.7169 104.211 28.6676V26.625L104.215 26.616Z" fill="#BFBFBF"/>
<path d="M51.3826 15.0342L28.9233 54H31.0467H31.0916L52.4869 16.8837L51.3826 15.0342Z" fill="url(#paint2_linear_471_1515)"/>
<g opacity="0.63">
<path d="M32.4698 19.3882L29.3498 24.8021H32.2049L26.3735 34.9206L28.0615 37.8431H28.1108L38.7501 19.3882H32.4698Z" fill="url(#paint3_linear_471_1515)"/>
</g>
<path d="M166.063 41.4795C165.533 41.4795 165.093 41.6725 164.752 42.0586C164.42 42.4312 164.253 42.8801 164.253 43.4143C164.253 43.9485 164.42 44.4199 164.756 44.797C165.102 45.192 165.546 45.3895 166.08 45.3895C166.615 45.3895 167.028 45.192 167.373 44.7925C167.701 44.4154 167.863 43.9665 167.863 43.4412C167.863 42.916 167.701 42.4536 167.373 42.0766C167.028 41.6815 166.592 41.4795 166.067 41.4795H166.063Z" fill="#BFBFBF"/>
<path d="M179.871 42.1802L179.189 44.4472H180.581L179.898 42.1802H179.871Z" fill="#BFBFBF"/>
<path d="M126.966 41.4795C126.437 41.4795 125.997 41.6725 125.656 42.0586C125.323 42.4312 125.157 42.8801 125.157 43.4143C125.157 43.9485 125.323 44.4199 125.66 44.797C126.006 45.192 126.45 45.3895 126.984 45.3895C127.519 45.3895 127.932 45.192 128.277 44.7925C128.605 44.4154 128.767 43.9665 128.767 43.4412C128.767 42.916 128.605 42.4536 128.277 42.0766C127.932 41.6815 127.496 41.4795 126.971 41.4795H126.966Z" fill="#BFBFBF"/>
<path d="M79.992 41.8071C79.8035 41.6679 79.5476 41.6006 79.2244 41.6006H78.6094V43.4456H79.2109C79.9516 43.4456 80.3242 43.1314 80.3242 42.4939C80.3242 42.1887 80.2165 41.9552 79.9965 41.8026L79.992 41.8071Z" fill="#BFBFBF"/>
<path d="M72.203 41.6006H71.4668V45.2592H72.194C72.7462 45.2592 73.1637 45.0887 73.4375 44.752C73.6934 44.4422 73.8191 44.0068 73.8191 43.4411C73.8191 42.8755 73.6889 42.4445 73.433 42.1303C73.1547 41.7802 72.7417 41.6051 72.203 41.6051V41.6006Z" fill="#BFBFBF"/>
<path d="M195.044 41.4795C194.514 41.4795 194.074 41.6725 193.733 42.0586C193.401 42.4312 193.235 42.8801 193.235 43.4143C193.235 43.9485 193.401 44.4199 193.738 44.797C194.083 45.192 194.528 45.3895 195.062 45.3895C195.596 45.3895 196.009 45.192 196.355 44.7925C196.683 44.4154 196.844 43.9665 196.844 43.4412C196.844 42.916 196.683 42.4536 196.355 42.0766C196.009 41.6815 195.574 41.4795 195.048 41.4795H195.044Z" fill="#BFBFBF"/>
<path d="M68.0371 38.2339V48.5948H207.578V38.2339H68.0371ZM72.0908 46.7453H69.7699V40.1104H71.9651C72.2928 40.1104 72.5756 40.1283 72.8225 40.1597C73.1099 40.1956 73.3657 40.2585 73.5992 40.3438C74.1154 40.5323 74.5464 40.8645 74.8965 41.3494C75.305 41.915 75.5071 42.6018 75.5071 43.4099C75.5071 45.632 74.3668 46.7453 72.0908 46.7453ZM80.1578 46.7453L78.627 44.604H78.6091V46.7453H76.984V40.1104H79.0804C79.3004 40.1104 79.48 40.1104 79.6146 40.1238C79.8122 40.1328 79.9917 40.1508 80.1488 40.1822C80.5439 40.2495 80.8716 40.3842 81.123 40.5907C81.6662 41.0261 81.94 41.6322 81.94 42.4043C81.94 42.934 81.7964 43.3874 81.5091 43.7645C81.2083 44.1685 80.8043 44.411 80.2925 44.4918L82.0926 46.7498H80.1578V46.7453ZM85.0061 46.7453H83.3137V40.1104H85.0061V46.7453ZM90.1776 46.7453H88.4313L86.2182 40.1104H87.9555L89.2887 44.7611H89.3112L90.6535 40.1104H92.3997L90.1776 46.7453ZM95.3132 46.7453H93.6208V40.1104H95.3132V46.7453ZM102.577 46.7453H101.109L98.5858 42.7096L98.5633 42.7186L98.6127 46.7453H96.9876V40.1104H98.4511L101.014 44.2808L101.032 44.2628L100.956 40.1104H102.581V46.7453H102.577ZM111.034 43.3246C111.034 44.3436 110.698 45.1921 110.029 45.8654C109.355 46.5433 108.511 46.88 107.497 46.88C106.482 46.88 105.683 46.5478 105.001 45.8789C104.314 45.2055 103.973 44.3795 103.973 43.4009C103.973 42.4223 104.323 41.6008 105.019 40.9453C105.701 40.3079 106.536 39.9891 107.524 39.9891C108.26 39.9891 108.938 40.2046 109.566 40.6311C110.217 41.0755 110.639 41.6412 110.841 42.3325H108.942C108.619 41.7624 108.134 41.4751 107.479 41.4751C106.949 41.4751 106.509 41.6636 106.168 42.0452C105.836 42.4133 105.67 42.8667 105.67 43.4009C105.67 43.9351 105.831 44.4289 106.154 44.8015C106.496 45.1966 106.94 45.3941 107.488 45.3941C107.869 45.3941 108.197 45.3088 108.475 45.1337C108.772 44.9452 108.969 44.6758 109.072 44.3257H107.093V42.9744H111.025C111.025 43.0283 111.03 43.0867 111.034 43.1495V43.3246ZM122.396 43.3246C122.396 44.3436 122.06 45.1921 121.391 45.8654C120.717 46.5433 119.873 46.88 118.859 46.88C117.844 46.88 117.045 46.5478 116.363 45.8789C115.676 45.2055 115.335 44.3795 115.335 43.4009C115.335 42.4223 115.685 41.6008 116.381 40.9453C117.063 40.3079 117.898 39.9891 118.886 39.9891C119.622 39.9891 120.3 40.2046 120.928 40.6311C121.579 41.0755 122.001 41.6412 122.203 42.3325H120.304C119.986 41.7624 119.496 41.4751 118.841 41.4751C118.311 41.4751 117.871 41.6636 117.53 42.0452C117.198 42.4133 117.032 42.8667 117.032 43.4009C117.032 43.9351 117.193 44.4289 117.517 44.8015C117.858 45.1966 118.302 45.3941 118.85 45.3941C119.231 45.3941 119.564 45.3088 119.837 45.1337C120.134 44.9452 120.331 44.6758 120.434 44.3257H118.455V42.9744H122.387C122.387 43.0283 122.392 43.0867 122.396 43.1495V43.3246ZM129.431 45.8879C128.753 46.5433 127.922 46.871 126.944 46.871C125.965 46.871 125.18 46.5478 124.497 45.9058C123.801 45.2504 123.456 44.4559 123.456 43.5131C123.456 43.0103 123.541 42.539 123.716 42.0946C123.806 41.8566 123.949 41.6097 124.147 41.3494C124.834 40.4426 125.772 39.9891 126.953 39.9891C127.927 39.9891 128.753 40.3169 129.431 40.9768C130.113 41.6367 130.454 42.4537 130.454 43.4278C130.454 44.402 130.113 45.2235 129.431 45.8879ZM135.545 46.7453H131.886V40.1104H133.579V45.2549H135.545V46.7408V46.7453ZM140.299 41.6008H138.306V42.7275H140.232V44.2134H138.306V46.7408H136.681V40.1059H140.299V41.5918V41.6008ZM146.624 46.7453H144.932V40.1104H146.624V46.7453ZM153.888 46.7453H152.42L149.897 42.7096L149.874 42.7186L149.924 46.7453H148.299V40.1104H149.762L152.325 44.2808L152.343 44.2628L152.267 40.1104H153.892V46.7453H153.888ZM161.165 46.7453H159.697L157.174 42.7096L157.151 42.7186L157.201 46.7453H155.576V40.1104H157.039L159.602 44.2808L159.62 44.2628L159.544 40.1104H161.169V46.7453H161.165ZM168.531 45.8879C167.853 46.5433 167.023 46.871 166.044 46.871C165.066 46.871 164.28 46.5478 163.598 45.9058C162.902 45.2504 162.556 44.4559 162.556 43.5131C162.556 43.0103 162.641 42.539 162.817 42.0946C162.906 41.8566 163.05 41.6097 163.248 41.3494C163.934 40.4426 164.873 39.9891 166.053 39.9891C167.027 39.9891 167.853 40.3169 168.531 40.9768C169.214 41.6367 169.555 42.4537 169.555 43.4278C169.555 44.402 169.214 45.2235 168.531 45.8879ZM174.125 46.7453H172.378L170.165 40.1104H171.903L173.236 44.7611H173.258L174.601 40.1104H176.347L174.125 46.7453ZM181.352 46.7453L181.029 45.7891H178.726L178.376 46.7453H176.558L179.22 40.1104H180.553L183.193 46.7453H181.357H181.352ZM187.309 41.6008H186.012V46.7453H184.32V41.6008H183.013V40.1148H187.314V41.6008H187.309ZM190.155 46.7453H188.463V40.1104H190.155V46.7453ZM197.513 45.8879C196.835 46.5433 196.005 46.871 195.026 46.871C194.048 46.871 193.262 46.5478 192.58 45.9058C191.884 45.2504 191.538 44.4559 191.538 43.5131C191.538 43.0103 191.623 42.539 191.799 42.0946C191.888 41.8566 192.032 41.6097 192.229 41.3494C192.916 40.4426 193.855 39.9891 195.035 39.9891C196.009 39.9891 196.835 40.3169 197.513 40.9768C198.196 41.6367 198.537 42.4537 198.537 43.4278C198.537 44.402 198.196 45.2235 197.513 45.8879ZM205.517 46.7453H204.049L201.527 42.7096L201.504 42.7186L201.553 46.7453H199.928V40.1104H201.392L203.955 44.2808L203.973 44.2628L203.897 40.1104H205.522V46.7453H205.517Z" fill="#BFBFBF"/>
</g>
<defs>
<linearGradient id="paint0_linear_471_1515" x1="28.0707" y1="70.673" x2="28.0707" y2="13.2792" gradientUnits="userSpaceOnUse">
<stop stop-color="#808184"/>
<stop offset="1" stop-color="#F1F1F2"/>
</linearGradient>
<linearGradient id="paint1_linear_471_1515" x1="28.0613" y1="38.2251" x2="28.0613" y2="-5.39596" gradientUnits="userSpaceOnUse">
<stop stop-color="#808184"/>
<stop offset="0.05" stop-color="#9B9B9E"/>
<stop offset="0.12" stop-color="#B5B6B8"/>
<stop offset="0.2" stop-color="#CBCBCD"/>
<stop offset="0.29" stop-color="#DCDCDE"/>
<stop offset="0.4" stop-color="#E8E8E9"/>
<stop offset="0.56" stop-color="#EFEFF0"/>
<stop offset="1" stop-color="#F1F1F2"/>
</linearGradient>
<linearGradient id="paint2_linear_471_1515" x1="40.3348" y1="54" x2="41.291" y2="6.06037" gradientUnits="userSpaceOnUse">
<stop stop-color="#808184"/>
<stop offset="1" stop-color="#F1F1F2"/>
</linearGradient>
<linearGradient id="paint3_linear_471_1515" x1="32.2229" y1="41.1381" x2="32.9412" y2="11.6579" gradientUnits="userSpaceOnUse">
<stop stop-color="#808184"/>
<stop offset="1" stop-color="#F1F1F2"/>
</linearGradient>
<clipPath id="clip0_471_1515">
<rect width="215.978" height="54" fill="white"/>
</clipPath>
</defs>
</svg>
