<svg width="219" height="50" viewBox="0 0 219 50" fill="none" xmlns="http://www.w3.org/2000/svg">
<path d="M75.8863 28.028L78.5318 17.4482H84.0338L78.5681 34.262H73.2407L67.7751 17.4482H73.2915L75.8863 28.028Z" fill="#F5F5F5"/>
<path d="M104.682 34.2547H99.2745V24.8051H91.2655V34.2547H85.8289V11.6296H91.2655V20.6126H99.2745V11.6296H104.682V34.2547Z" fill="#F5F5F5"/>
<path d="M117.314 34.2548C117.126 33.912 116.965 33.409 116.82 32.7454C115.861 33.9558 114.516 34.5609 112.794 34.5609C111.216 34.5609 109.872 34.0797 108.767 33.1246C107.663 32.1694 107.11 30.9591 107.11 29.5154C107.11 27.6925 107.778 26.3144 109.123 25.3811C110.468 24.4478 112.416 23.9812 114.982 23.9812H116.595V23.0917C116.595 21.5387 115.926 20.7657 114.596 20.7657C113.353 20.7657 112.735 21.3782 112.735 22.6105H107.517C107.517 20.9845 108.207 19.6648 109.581 18.6513C110.962 17.6377 112.721 17.1274 114.858 17.1274C116.995 17.1274 118.681 17.6524 119.924 18.695C121.159 19.7449 121.799 21.1741 121.827 22.9969V30.4413C121.85 31.9872 122.089 33.1684 122.54 33.985V34.2475H117.314V34.2548ZM114.051 30.8351C114.705 30.8351 115.243 30.6966 115.672 30.4122C116.1 30.1351 116.406 29.8143 116.595 29.4643V26.7738H115.076C113.259 26.7738 112.351 27.5904 112.351 29.231C112.351 29.7049 112.51 30.0913 112.83 30.3903C113.143 30.6892 113.557 30.8351 114.051 30.8351Z" fill="#F5F5F5"/>
<path d="M129.511 17.4409L129.678 19.4169C130.833 17.893 132.433 17.1347 134.46 17.1347C136.204 17.1347 137.505 17.6597 138.37 18.7024C139.235 19.7522 139.679 21.3199 139.707 23.4271V34.2548H134.474V23.6459C134.474 22.8 134.307 22.173 133.965 21.772C133.624 21.3709 133.006 21.1741 132.105 21.1741C131.08 21.1741 130.324 21.5751 129.83 22.3845V34.2548H124.612V17.4409H129.511Z" fill="#F5F5F5"/>
<path d="M141.946 25.7238C141.946 23.0626 142.52 20.9626 143.668 19.4315C144.816 17.9003 146.416 17.1346 148.473 17.1346C149.97 17.1346 151.227 17.7252 152.252 18.9064V10.3902H157.485V34.2547H152.79L152.528 32.4538C151.452 33.8609 150.094 34.5682 148.437 34.5682C146.445 34.5682 144.861 33.8027 143.698 32.2715C142.527 30.733 141.946 28.5529 141.946 25.7238ZM147.165 26.052C147.165 29.0341 148.029 30.5288 149.766 30.5288C150.922 30.5288 151.751 30.0403 152.244 29.0706V22.6688C151.773 21.6772 150.951 21.1741 149.795 21.1741C148.182 21.1741 147.31 22.4792 147.179 25.0895L147.165 26.052Z" fill="#F5F5F5"/>
<path d="M160.407 13.1098C160.407 12.3662 160.676 11.7536 161.214 11.2797C161.752 10.8057 162.449 10.5651 163.307 10.5651C164.165 10.5651 164.863 10.8057 165.4 11.2797C165.938 11.7536 166.207 12.3662 166.207 13.1098C166.207 13.8535 165.938 14.4661 165.4 14.94C164.863 15.4139 164.165 15.6546 163.307 15.6546C162.449 15.6546 161.752 15.4139 161.214 14.94C160.676 14.4661 160.407 13.8535 160.407 13.1098ZM165.952 34.2547H160.72V17.4409H165.952V34.2547Z" fill="#F5F5F5"/>
<path d="M176.251 30.5288C176.986 30.5288 177.552 30.3319 177.952 29.931C178.352 29.53 178.548 28.9758 178.541 28.2613H183.433C183.433 30.106 182.771 31.6152 181.455 32.7964C180.14 33.9776 178.446 34.5682 176.368 34.5682C173.933 34.5682 172.007 33.8027 170.604 32.2715C169.202 30.7403 168.497 28.6185 168.497 25.8989V25.6801C168.497 23.9812 168.809 22.4793 169.434 21.1814C170.059 19.8835 170.96 18.8846 172.137 18.1846C173.315 17.4846 174.71 17.1347 176.317 17.1347C178.498 17.1347 180.227 17.7398 181.507 18.9503C182.785 20.1606 183.425 21.8011 183.425 23.8792H178.533C178.533 23.0115 178.323 22.3406 177.901 21.8741C177.48 21.4074 176.912 21.1741 176.201 21.1741C174.849 21.1741 174.057 22.0417 173.831 23.7698C173.758 24.3166 173.723 25.075 173.723 26.0374C173.723 27.729 173.925 28.8956 174.326 29.5518C174.732 30.2007 175.372 30.5288 176.251 30.5288Z" fill="#F5F5F5"/>
<path d="M195.083 34.2548C194.894 33.912 194.734 33.409 194.589 32.7454C193.629 33.9558 192.285 34.5609 190.562 34.5609C188.985 34.5609 187.64 34.0797 186.536 33.1246C185.431 32.1694 184.878 30.9591 184.878 29.5154C184.878 27.6925 185.547 26.3144 186.892 25.3811C188.236 24.4478 190.184 23.9812 192.749 23.9812H194.363V23.0917C194.363 21.5387 193.695 20.7657 192.365 20.7657C191.129 20.7657 190.504 21.3782 190.504 22.6105H185.286C185.286 20.9845 185.976 19.6648 187.349 18.6513C188.731 17.6377 190.49 17.1274 192.627 17.1274C194.763 17.1274 196.45 17.6524 197.693 18.695C198.928 19.7449 199.567 21.1741 199.596 22.9969V30.4413C199.618 31.9872 199.858 33.1684 200.309 33.985V34.2475H195.083V34.2548ZM191.82 30.8351C192.474 30.8351 193.011 30.6966 193.441 30.4122C193.869 30.1351 194.174 29.8143 194.363 29.4643V26.7738H192.844C191.027 26.7738 190.119 27.5904 190.119 29.231C190.119 29.7049 190.278 30.0913 190.599 30.3903C190.911 30.6892 191.326 30.8351 191.82 30.8351Z" fill="#F5F5F5"/>
<path d="M218.043 25.9717C218.043 28.5821 217.454 30.6674 216.284 32.2278C215.113 33.7881 213.529 34.5682 211.538 34.5682C209.997 34.5682 208.733 34.0069 207.744 32.8767V40.7222H202.526V17.4409H207.403L207.555 18.994C208.558 17.7471 209.874 17.1274 211.501 17.1274C213.566 17.1274 215.172 17.893 216.32 19.4169C217.469 20.9408 218.043 23.0479 218.043 25.7166V25.9717ZM212.824 25.6437C212.824 22.6615 211.959 21.1668 210.223 21.1668C208.98 21.1668 208.158 21.6115 207.744 22.5011V29.1216C208.195 30.0549 209.038 30.5216 210.251 30.5216C211.916 30.5216 212.774 29.0852 212.824 26.2051V25.6437Z" fill="#F5F5F5"/>
<path fill-rule="evenodd" clip-rule="evenodd" d="M32.9972 0C38.6663 0.0947876 43.7902 1.77908 48.2602 5.32268C51.6398 8.00589 54.1691 11.3526 55.8771 15.3191C56.6911 17.2076 57.258 19.169 57.5923 21.2032C57.8976 23.0771 57.9993 24.9656 57.854 26.854C57.527 31.1851 56.1315 35.1515 53.7258 38.7607C51.0947 42.6981 47.7005 45.7896 43.4704 47.9405C42.6274 48.3707 41.7479 48.7135 40.8103 48.8738C40.6723 48.8957 40.5341 48.903 40.367 48.903C40.4397 48.7645 40.556 48.7062 40.6504 48.6259C41.8787 47.5978 43.1361 46.6135 44.3208 45.5417C45.7381 44.2584 46.8501 42.7491 47.7877 41.0867C49.1832 38.6004 50.2007 35.9754 50.7895 33.1829C51.0511 31.936 51.2328 30.6746 51.3345 29.3987C51.4217 28.3415 51.4581 27.2768 51.4072 26.2196C51.2982 23.8354 50.9857 21.4948 50.019 19.2856C49.6992 18.5491 49.2995 17.8565 48.7325 17.2804C47.6714 16.2013 46.4358 16.1649 45.2947 17.1638C44.6479 17.7252 44.1464 18.4106 43.7321 19.1543C42.7291 20.948 41.7552 22.7635 40.7014 24.5353C39.0442 27.3352 37.3071 30.084 35.2866 32.6433C34.2618 33.9484 33.1788 35.1953 31.8997 36.2598C31.0856 36.938 30.2208 37.5431 29.1596 37.791C28.1493 38.0316 27.2917 37.7472 26.5795 37.0035C25.9762 36.3692 25.5037 35.6401 25.0168 34.9109C23.4105 32.4829 21.7897 30.0695 20.0164 27.7655C16.9782 23.8208 13.6059 20.1824 9.93547 16.8212C8.40918 15.4212 6.86835 14.0358 5.23303 12.7671C3.63404 11.5203 1.98419 10.3391 0.356137 9.12875C0.319795 9.09959 0.283455 9.07042 0.218043 9.02668C0.341601 9.00481 0.42155 9.05584 0.494231 9.07772C3.75034 10.1277 6.85381 11.5349 9.87011 13.139C14.071 15.3701 18.0394 17.9585 21.6734 21.0355C23.0399 22.1948 24.2391 23.5219 25.5037 24.7905C26.4849 25.7749 27.4443 26.7738 28.4183 27.7727C28.4328 27.7873 28.4473 27.7946 28.4691 27.8092C28.5055 27.7071 28.4328 27.6561 28.3892 27.5977C25.7508 23.9739 23.0108 20.4303 19.9654 17.1419C17.2835 14.2473 14.3545 11.6224 11.2219 9.22354C7.69691 6.53303 3.97565 4.1196 0.232579 1.74263C0.145362 1.69159 0.0654132 1.63326 0 1.53847C0.472426 1.66242 0.944854 1.77908 1.41001 1.91033C6.127 3.22277 10.6623 5.01644 15.0667 7.14551C15.2557 7.23301 15.3575 7.21843 15.5028 7.07989C16.8693 5.73828 18.3519 4.55709 19.9945 3.57276C22.5021 2.07074 25.1839 1.02079 28.0549 0.466646C29.2032 0.247906 30.3516 0.102079 31.5144 0.0437482C31.5581 0.0437482 31.609 0.0583316 31.6307 0C32.0887 0 32.5393 0 32.9972 0Z" fill="#F5F5F5"/>
<path fill-rule="evenodd" clip-rule="evenodd" d="M2.12959 17.0107C2.99449 17.2731 3.80125 17.6596 4.59347 18.0825C6.57039 19.1252 8.35107 20.4449 10.0445 21.9032C12.6029 24.1052 14.8996 26.5623 17.0365 29.1654C20.0236 32.8111 22.6692 36.6901 24.9732 40.8023C26.4632 43.4637 27.7932 46.1906 28.7816 49.0853C28.8616 49.3259 28.927 49.5811 29.0215 49.8217C29.0797 49.9822 29.0361 50.0113 28.8834 49.9967C28.1203 49.9092 27.3717 49.778 26.6231 49.6102C23.287 48.8811 20.2053 47.5687 17.4216 45.5709C13.2934 42.6179 10.3571 38.7316 8.54731 33.9923C7.92226 32.359 7.48617 30.6746 7.22452 28.9466C7.00648 27.5248 6.88292 26.0957 6.91199 24.6593C6.92653 23.8135 6.98467 22.9677 7.13004 22.1292C7.16638 21.9178 7.10822 21.7574 6.97014 21.5969C6.21425 20.7002 5.37116 19.8908 4.50625 19.1033C3.75764 18.4252 2.98722 17.769 2.195 17.1346C2.15866 17.1055 2.12959 17.0691 2.10052 17.0325C2.11505 17.0252 2.12232 17.018 2.12959 17.0107Z" fill="#F5F5F5"/>
<path fill-rule="evenodd" clip-rule="evenodd" d="M2.10782 17.0325C2.08601 17.0252 2.0424 17.0252 2.06421 16.9888C2.07874 16.967 2.11509 16.9743 2.13689 17.0034C2.12236 17.018 2.11509 17.0252 2.10782 17.0325Z" fill="#F5F5F5"/>
</svg>
