<svg width="30" height="20" viewBox="0 0 30 20" fill="none" xmlns="http://www.w3.org/2000/svg">
<path d="M29.3419 3.17708C30 5.36458 30 10.0521 30 10.0521C30 10.0521 30 14.6875 29.3419 16.9271C29.0128 18.1771 27.9708 19.1146 26.7093 19.4271C24.351 20 15.0274 20 15.0274 20C15.0274 20 5.64899 20 3.29068 19.4271C2.02925 19.1146 0.987203 18.1771 0.658135 16.9271C0 14.6875 0 10.0521 0 10.0521C0 10.0521 0 5.36458 0.658135 3.17708C0.987203 1.92708 2.02925 0.9375 3.29068 0.625C5.64899 0 15.0274 0 15.0274 0C15.0274 0 24.351 0 26.7093 0.625C27.9708 0.9375 29.0128 1.92708 29.3419 3.17708ZM11.9561 14.2708L19.7441 10.0521L11.9561 5.83333V14.2708Z" fill="white"/>
</svg>
