<?xml version="1.0" standalone="no"?>
<!DOCTYPE svg PUBLIC "-//W3C//DTD SVG 1.1//EN" "http://www.w3.org/Graphics/SVG/1.1/DTD/svg11.dtd" >
<svg xmlns="http://www.w3.org/2000/svg">
<metadata>Generated by IcoMoon</metadata>
<defs>
<font id="icomoon" horiz-adv-x="1024">
<font-face units-per-em="1024" ascent="960" descent="-64" />
<missing-glyph horiz-adv-x="1024" />
<glyph unicode="&#x20;" horiz-adv-x="512" d="" />
<glyph unicode="&#xe900;" glyph-name="card" horiz-adv-x="983" d="M0 830.387h983.001v-764.774h-983.001v764.774zM73.725 756.662v-617.324h835.551v617.324h-835.551zM0 593.832h983.001v-73.723h-983.001v73.723zM594.788 320.599h244.536v-73.725h-244.536v73.725zM387.104 320.599h110.481v-73.725h-110.481v73.725z" />
<glyph unicode="&#xe901;" glyph-name="category" horiz-adv-x="983" d="M0 893.614h408.492v-408.493h-408.492v408.493zM72.087 821.527v-264.319h264.319v264.319h-264.319zM588.425 939.517l394.575-105.725-105.728-394.577-394.575 105.728 105.728 394.574zM639.401 851.228l-68.411-255.313 255.313-68.409 68.411 255.31-255.313 68.411zM0 364.976h408.492v-408.493h-408.492v408.493zM72.087 292.889v-264.319h264.319v264.319h-264.319zM528.636 364.976h408.493v-408.493h-408.493v408.493zM600.723 292.889v-264.319h264.319v264.319h-264.319z" />
<glyph unicode="&#xe902;" glyph-name="circle-down" horiz-adv-x="983" d="M491.5 865.777c-230.367 0-417.775-187.409-417.775-417.775s187.409-417.775 417.775-417.775c230.367 0 417.775 187.409 417.775 417.775s-187.409 417.775-417.775 417.775zM491.5-43.501c-271.013 0-491.5 220.488-491.5 491.5s220.488 491.5 491.5 491.5c271.013 0 491.5-220.488 491.5-491.5s-220.488-491.5-491.5-491.5zM491.5 310.68c-9.781 0-19.217 3.883-26.099 10.862l-170.6 171.338c-14.401 14.45-14.302 37.796 0.098 52.149 14.45 14.353 37.796 14.353 52.149-0.098l144.451-145.189 144.501 145.189c14.351 14.451 37.698 14.451 52.149 0.098 14.401-14.351 14.45-37.698 0.098-52.149l-170.649-171.338c-6.881-6.979-16.318-10.862-26.099-10.862z" />
<glyph unicode="&#xe903;" glyph-name="circle-left" horiz-adv-x="983" d="M491.5 865.777c-230.367 0-417.775-187.409-417.775-417.775s187.409-417.775 417.775-417.775c230.367 0 417.775 187.409 417.775 417.775s-187.409 417.775-417.775 417.775zM491.5-43.501c-271.013 0-491.5 220.488-491.5 491.5s220.488 491.5 491.5 491.5c271.013 0 491.5-220.488 491.5-491.5s-220.488-491.5-491.5-491.5zM562.394 240.552c-9.387 0-18.825 3.588-26.001 10.764l-171.387 170.55c-6.93 6.93-10.813 16.318-10.813 26.148 0 9.781 3.883 19.168 10.813 26.099l171.387 170.601c14.401 14.351 37.698 14.351 52.1-0.098s14.302-37.796-0.098-52.149l-145.091-144.453 145.091-144.501c14.401-14.351 14.499-37.649 0.098-52.1-7.176-7.274-16.661-10.862-26.099-10.862z" />
<glyph unicode="&#xe904;" glyph-name="circle-right" horiz-adv-x="983" d="M491.5 865.777c-230.367 0-417.775-187.409-417.775-417.775s187.409-417.775 417.775-417.775c230.367 0 417.775 187.409 417.775 417.775s-187.409 417.775-417.775 417.775zM491.5-43.501c-271.013 0-491.5 220.488-491.5 491.5s220.488 491.5 491.5 491.5c271.013 0 491.5-220.488 491.5-491.5s-220.488-491.5-491.5-491.5zM420.655 240.552c-9.436 0-18.923 3.588-26.099 10.862-14.351 14.45-14.302 37.747 0.098 52.1l145.091 144.501-145.091 144.453c-14.401 14.351-14.45 37.698-0.098 52.149 14.351 14.499 37.649 14.401 52.1 0.098l171.338-170.601c6.93-6.93 10.813-16.318 10.813-26.099 0-9.83-3.883-19.217-10.813-26.148l-171.338-170.55c-7.176-7.176-16.612-10.764-26.001-10.764z" />
<glyph unicode="&#xe905;" glyph-name="circle-up" horiz-adv-x="983" d="M491.5 865.777c-230.367 0-417.775-187.409-417.775-417.775s187.409-417.775 417.775-417.775c230.367 0 417.775 187.409 417.775 417.775s-187.409 417.775-417.775 417.775zM491.5-43.501c-271.013 0-491.5 220.488-491.5 491.5s220.488 491.5 491.5 491.5c271.013 0 491.5-220.488 491.5-491.5s-220.488-491.5-491.5-491.5zM662.134 340.243c-9.436 0-18.923 3.588-26.099 10.862l-144.55 145.14-144.451-145.14c-14.351-14.45-37.698-14.45-52.149-0.098-14.401 14.351-14.499 37.649-0.098 52.1l170.6 171.387c13.811 13.91 38.386 13.91 52.246 0l170.6-171.387c14.351-14.45 14.302-37.747-0.098-52.1-7.176-7.176-16.612-10.764-26.001-10.764z" />
<glyph unicode="&#xe906;" glyph-name="crown" horiz-adv-x="983" d="M493.61 867.684c-3.862-4.177-9.274-12.531-14.686-27.019l-0.018-0.054-80.259-213.87c-9.637-25.128-28.554-44.511-53.586-52.197s-51.606-2.275-73.83 13.111l-0.434 0.3-177.703 127.131c-10.119 7.269-18.224 11.793-24.301 14.432 0.849-6.613 2.958-15.734 7.175-27.601l188.649-528.124c0.354-1.011 2.073-3.968 6.145-6.846 4.079-2.884 7.468-3.53 8.525-3.53h428.186c1.056 0 4.446 0.647 8.528 3.53 4.073 2.879 5.79 5.835 6.145 6.846l0.073 0.205 184.015 515.15c5.853 16.576 8.076 28.534 8.395 36.319-7.339-2.474-18.138-7.92-32.356-18.127-15.328-11.004-36.674-7.5-47.675 7.827-11.005 15.327-7.502 36.673 7.826 47.677 19.514 14.011 38.756 24.441 56.953 29.372 17.847 4.835 40.405 5.686 59.195-8.522 18.744-14.175 24.115-36.072 24.411-54.521 0.305-18.848-4.351-40.225-12.353-62.866l-0.037-0.103-183.997-515.099c-6.035-17.155-18.184-30.784-31.167-39.958-13-9.188-29.882-16.057-47.957-16.057h-428.186c-18.073 0-34.956 6.869-47.958 16.057-12.979 9.174-25.127 22.804-31.164 39.953l-0.041 0.118-188.529 527.791c-7.436 20.92-11.846 40.849-11.585 58.564 0.255 17.319 5.296 38.46 23.542 52.165 18.235 13.698 39.927 12.654 56.587 8.103 17.041-4.654 34.883-14.381 52.789-27.24l177.376-126.892c7.285-4.98 12.305-4.581 14.699-3.846 2.404 0.738 6.696 3.204 9.809 11.253l80.101 213.446c7.311 19.571 16.736 36.852 28.775 49.774 12.162 13.054 29.085 23.687 49.92 23.687s37.758-10.633 49.92-23.687c12.040-12.923 21.45-30.164 28.761-49.734l80.116-213.488c3.121-8.064 7.424-10.534 9.789-11.262 2.323-0.715 7.156-1.111 14.153 3.78l28.579 20.413c15.351 10.966 36.687 7.411 47.656-7.943s7.411-36.691-7.944-47.658l-28.902-20.646c-22.106-15.544-48.677-20.949-73.676-13.241-24.958 7.696-43.857 27.074-53.491 52.185l-0.087 0.231-80.189 213.693c-5.411 14.487-10.823 22.841-14.686 27.019zM208.683-7.858c0 18.868 15.296 34.164 34.164 34.164h501.069c18.868 0 34.164-15.296 34.164-34.164s-15.296-34.164-34.164-34.164h-501.069c-18.868 0-34.164 15.296-34.164 34.164zM345.339 356.556c0 18.868 15.296 34.164 34.164 34.164h227.759c18.868 0 34.164-15.296 34.164-34.164s-15.296-34.164-34.164-34.164h-227.759c-18.868 0-34.164 15.296-34.164 34.164z" />
<glyph unicode="&#xe907;" glyph-name="directbox" horiz-adv-x="983" d="M491.504 959.999c19.728 0 35.721-15.993 35.721-35.721v-199.529l34.278 34.277c13.95 13.95 36.564 13.95 50.514 0s13.95-36.567 0-50.517l-95.256-95.256c-10.216-10.216-25.581-13.272-38.927-7.743-13.35 5.529-22.051 18.553-22.051 33.002v285.767c0 19.728 15.993 35.721 35.721 35.721zM370.99 759.025c13.95 13.95 36.565 13.95 50.515 0l95.256-95.256c13.95-13.95 13.95-36.567 0-50.517s-36.564-13.95-50.514 0l-95.257 95.256c-13.95 13.95-13.95 36.567 0 50.517zM57.278 412.521c34.13 49.405 97.458 71.199 196.087 71.199 26.139 0 46.292-2.706 64.4-9.759 17.002-6.62 29.985-16.37 41.393-24.934 0.458-0.348 0.915-0.686 1.369-1.029 1.672-1.252 3.23-2.652 4.657-4.177l48.038-51.371c42.651-45.089 114.030-44.903 156.038-0.048l0.1 0.109 48.58 51.438c1.395 1.477 2.915 2.829 4.538 4.049 0.452 0.343 0.909 0.681 1.367 1.029 11.412 8.564 24.395 18.313 41.393 24.934 18.108 7.053 38.264 9.759 64.402 9.759 98.628 0 161.958-21.794 196.088-71.199 16.336-23.657 23.489-50.375 26.867-76.234 3.277-25.114 3.277-52.138 3.277-77.514v-48.914c0-68.899-12.259-138.564-55.844-191.159-44.717-53.958-116.154-82.701-218.016-82.701h-190.511c-19.728 0-35.721 15.993-35.721 35.721s15.993 35.721 35.721 35.721h190.511c88.65 0 136.282 24.6 163.007 56.849 27.858 33.616 39.412 83.015 39.412 145.569v47.628c0 26.881-0.057 49.495-2.677 69.546-2.577 19.733-7.33 34.058-14.807 44.88-13.498 19.537-45.423 40.365-137.307 40.365-21.489 0-31.815-2.295-38.473-4.886-6.626-2.581-12.055-6.263-23.395-14.727l-46.371-49.1c-0.019-0.019-0.038-0.038-0.057-0.062-70.385-75.080-189.425-74.9-260.117-0.048l-0.121 0.129-45.946 49.132c-11.292 8.426-16.712 12.098-23.322 14.674-6.658 2.591-16.986 4.886-38.475 4.886-91.882 0-123.81-20.828-137.308-40.365-7.473-10.821-12.23-25.148-14.807-44.88-2.619-20.051-2.677-42.665-2.677-69.546v-47.628c0-33.43 0.058-62.293 3.42-88.040 3.321-25.423 9.565-44.889 20.020-60.025 19.455-28.172 63.296-54.353 178.979-54.353 19.728 0 35.721-15.993 35.721-35.721s-15.993-35.721-35.721-35.721c-122.456 0-197.684 27.162-237.765 85.196-19.314 27.967-27.952 59.821-32.074 91.37-4.023 30.806-4.022 64.073-4.022 95.97v50.238c-0.001 25.376-0.002 52.4 3.278 77.514 3.377 25.857 10.527 52.577 26.867 76.234zM336.547 830.554c1.899-19.636-12.481-37.094-32.117-38.992-64.985-6.281-86.884-25.995-96.947-44.85-12.779-23.937-13.652-57.456-13.652-108.201v-190.511c0-19.728-15.993-35.721-35.721-35.721s-35.721 15.993-35.721 35.721v190.511c0 1.581-0.001 3.174-0.002 4.777-0.030 43.984-0.065 95.599 22.071 137.067 25.657 48.064 75.199 74.787 153.098 82.317 19.636 1.898 37.094-12.481 38.992-32.119zM646.46 830.554c1.895 19.636 19.356 34.016 38.993 32.119 77.9-7.53 127.438-34.253 153.095-82.317 22.137-41.469 22.105-93.084 22.071-137.067 0-1.602 0-3.195 0-4.777v-190.511c0-19.728-15.993-35.721-35.721-35.721s-35.721 15.993-35.721 35.721v190.511c0 50.746-0.872 84.264-13.65 108.201-10.064 18.853-31.967 38.569-96.951 44.85-19.637 1.898-34.016 19.356-32.115 38.992z" />
<glyph unicode="&#xe908;" glyph-name="gallery-edit" horiz-adv-x="983" d="M228.537 630.83c0 69.211 56.485 125.695 125.695 125.695 18.932 0 34.281-15.348 34.281-34.281s-15.348-34.281-34.281-34.281c-31.346 0-57.134-25.789-57.134-57.134s25.789-57.134 57.134-57.134c31.346 0 57.134 25.789 57.134 57.134 0 18.932 15.348 34.281 34.281 34.281s34.281-15.348 34.281-34.281c0-69.211-56.485-125.695-125.695-125.695s-125.695 56.485-125.695 125.695zM948.429 573.695c18.932 0 34.281-15.348 34.281-34.281v-228.537c0-117.651-23.32-208.924-84.317-269.916-60.992-60.996-152.265-84.317-269.916-84.317h-274.245c-117.65 0-208.922 23.32-269.917 84.317-60.995 60.992-84.315 152.265-84.315 269.916v96.443c0 18.932 15.348 34.281 34.281 34.281s34.281-15.348 34.281-34.281v-96.443c0-110.886 22.387-179.589 64.234-221.439 41.846-41.845 110.549-64.233 221.438-64.233h274.245c110.886 0 179.589 22.387 221.439 64.233 41.845 41.85 64.233 110.553 64.233 221.439v228.537c0 18.932 15.348 34.281 34.281 34.281zM84.315 855.039c60.995 60.995 152.268 84.315 269.917 84.315h182.83c18.932 0 34.281-15.348 34.281-34.281s-15.348-34.281-34.281-34.281h-182.83c-110.887 0-179.591-22.387-221.438-64.234s-64.234-110.549-64.234-221.438c0-18.932-15.348-34.281-34.281-34.281s-34.281 15.348-34.281 34.281c0 117.65 23.32 208.922 84.315 269.917zM946.221 901.826c25.309-25.332 39.368-53.577 36.383-84.334-2.811-28.992-20.143-51.535-36.448-67.838l-165.918-165.918c-6.902-6.903-15.398-11.981-22.411-15.368-7.135-3.448-15.782-6.611-24.362-7.965l-64.128-9.23c-20.509-2.871-41.47 2.648-56.591 17.765-15.115 15.118-20.636 36.081-17.766 56.589l9.078 63.085c1.129 9.788 4.634 18.961 8.154 25.995 3.679 7.365 8.867 15.354 15.335 21.822l165.918 165.918c16.198 16.2 38.764 33.746 67.903 36.564 30.971 2.994 59.365-11.347 84.851-37.084zM867.97 870.666c-5.142-0.497-13.429-4.205-26.026-16.8l-165.863-165.863c0 0-0.292-0.329-0.768-1.021-0.571-0.827-1.197-1.877-1.778-3.036-0.58-1.166-0.992-2.192-1.239-2.946-0.078-0.247-0.128-0.422-0.155-0.527-0.041-0.35-0.083-0.7-0.133-1.048l-8.611-59.84 59.383 8.544c0.142 0.031 0.649 0.15 1.509 0.44 1.097 0.37 2.39 0.893 3.716 1.532 1.33 0.643 2.445 1.284 3.25 1.819 0.384 0.254 0.617 0.427 0.713 0.506l165.712 165.709c12.491 12.491 16.185 20.803 16.687 25.976 0.325 3.382 0.013 12.596-16.687 29.299l-0.133 0.129c-17.003 17.186-26.295 17.445-29.577 17.128zM784.641 887.334c18.219 5.135 37.155-5.474 42.293-23.696 10.934-38.793 41.265-69.127 80.056-80.059 18.224-5.135 28.833-24.071 23.7-42.294-5.138-18.223-24.075-28.833-42.293-23.696-61.764 17.406-110.049 65.69-127.455 127.453-5.133 18.223 5.476 37.158 23.7 42.294zM851.588 399.142c-22.803 19.59-61.417 19.59-84.221 0l-190.143-163.175c-48.501-41.649-125.074-41.658-173.57 0l-0.292 0.251-14.922 13.113c-20.497 17.496-55.524 19.645-79.101 3.825l-225.328-151.288c-15.719-10.554-37.016-6.363-47.569 9.351-10.553 15.719-6.366 37.019 9.352 47.572l225.338 151.292c48.591 32.599 117.69 29.313 162.117-8.858l0.288-0.251 14.919-13.113c22.821-19.476 61.33-19.439 84.092 0.109l190.143 163.175c48.501 41.649 125.074 41.658 173.57 0.004l74.503-63.99c14.362-12.336 16.002-33.979 3.666-48.344-12.332-14.362-33.975-16.002-48.34-3.666l-74.503 63.99z" />
<glyph unicode="&#xe909;" glyph-name="global" horiz-adv-x="983" d="M491.5 870.92c-233.571 0-422.919-189.348-422.919-422.919s189.348-422.919 422.919-422.919c233.57 0 422.919 189.349 422.919 422.919 0 233.572-189.349 422.919-422.919 422.919zM0 448c0 271.448 220.052 491.5 491.5 491.5 271.45 0 491.5-220.052 491.5-491.5 0-271.45-220.050-491.5-491.5-491.5-271.448 0-491.5 220.050-491.5 491.5zM274.325 859.49c0 18.938 15.353 34.291 34.291 34.291h45.721c11.026 0 21.378-5.302 27.823-14.248s8.194-20.445 4.703-30.904c-86.802-259.961-86.802-541.293 0-801.259 3.493-10.457 1.742-21.955-4.703-30.903-6.444-8.943-16.797-14.247-27.823-14.247h-45.721c-18.938 0-34.291 15.353-34.291 34.291 0 18.609 14.82 33.752 33.3 34.277-72.594 246.171-72.594 508.254 0 754.424-18.48 0.524-33.3 15.67-33.3 34.276zM617.804 892.015c17.964 5.999 37.386-3.701 43.385-21.665 91.51-274.060 91.51-570.641 0-844.697-5.999-17.964-25.421-27.666-43.385-21.667s-27.666 25.426-21.667 43.385c86.802 259.964 86.802 541.298 0 801.259-5.999 17.964 3.704 37.388 21.667 43.386zM59.968 338.663c8.947 6.442 20.445 8.193 30.904 4.7 259.961-86.802 541.293-86.802 801.258 0 10.457 3.493 21.955 1.742 30.903-4.7 8.943-6.446 14.247-16.798 14.247-27.825v-45.721c0-18.938-15.353-34.291-34.291-34.291-18.609 0-33.752 14.818-34.277 33.298-246.171-72.591-508.253-72.591-754.424 0-0.524-18.48-15.67-33.298-34.276-33.298-18.938 0-34.291 15.353-34.291 34.291v45.721c0 11.028 5.302 21.379 14.248 27.825zM892.13 552.638c-259.964 86.802-541.297 86.802-801.258 0-17.964-5.999-37.388 3.701-43.386 21.665s3.701 37.388 21.665 43.386c274.060 91.51 570.64 91.51 844.697 0 17.964-5.999 27.666-25.422 21.667-43.386s-25.421-27.663-43.385-21.665z" />
<glyph unicode="&#xe90a;" glyph-name="lock" horiz-adv-x="983" d="M724.974 540.205c-21.195 0-38.397 17.202-38.397 38.397v109.918c0 107.307-87.289 194.596-194.596 194.596h-0.819c-51.861 0-100.447-19.966-137.154-56.367-36.963-36.553-57.39-85.343-57.595-137.359v-110.788c0-21.195-17.202-38.397-38.397-38.397s-38.397 17.202-38.397 38.397v109.918c0.307 73.722 28.823 141.761 80.275 192.752 51.503 51.042 119.492 80.582 192.241 78.638 149.492 0 271.236-121.744 271.236-271.39v-109.918c0-21.195-17.202-38.397-38.397-38.397zM295.905 543.851c-85.907 0-155.738-69.831-155.738-155.738v-219.579c0-85.907 69.831-155.738 155.738-155.738h391.188c85.856 0 155.738 69.831 155.738 155.738v219.579c0 85.907-69.882 155.738-155.738 155.738h-391.188zM687.094-64h-391.188c-128.246 0-232.532 104.287-232.532 232.532v219.579c0 128.246 104.287 232.533 232.532 232.533h391.188c128.246 0 232.532-104.287 232.532-232.533v-219.579c0-128.246-104.287-232.532-232.532-232.532zM491.489 183.083c-21.195 0-38.397 17.202-38.397 38.397v113.706c0 21.195 17.202 38.397 38.397 38.397s38.397-17.202 38.397-38.397v-113.706c0-21.195-17.202-38.397-38.397-38.397z" />
<glyph unicode="&#xe90b;" glyph-name="mouse-square" horiz-adv-x="983" d="M34.29 436.167c18.938 0 34.291-15.353 34.291-34.291v-90.528c0-110.924 22.394-179.647 64.253-221.504s110.582-64.252 221.503-64.252h137.163c18.938 0 34.291-15.353 34.291-34.291 0-18.942-15.353-34.291-34.291-34.291h-137.163c-117.685 0-208.984 23.327-269.997 84.337-61.013 61.014-84.34 152.315-84.34 270v90.528c0 18.938 15.353 34.291 34.291 34.291zM84.34 855.67c61.013 61.013 152.314 84.34 269.997 84.34h274.326c117.686 0 208.986-23.327 269.996-84.34 61.014-61.013 84.342-152.312 84.342-269.997v-137.161c0-18.942-15.353-34.291-34.291-34.291s-34.291 15.348-34.291 34.291v137.161c0 110.92-22.394 179.645-64.252 221.503-41.862 41.859-110.585 64.253-221.504 64.253h-274.326c-110.92 0-179.645-22.394-221.503-64.253s-64.253-110.582-64.253-221.503c0-18.938-15.353-34.291-34.291-34.291s-34.291 15.353-34.291 34.291c0 117.685 23.327 208.984 84.34 269.997zM573.656 321.426c-8.577 28.305 17.397 52.891 43.755 44.556l272.602-84.62c32.059-10.123 32.947-56.37 0.233-67.351l-74.52-25.147c-30.454-10.173-55.158-33.994-65.523-65.587l-25.138-74.497c-10.836-32.503-56.543-32.321-66.867 0.746l-84.542 271.902zM637.995 431.398c-80.57 25.402-154.18-50.522-129.916-130.058l84.638-272.214c29.911-95.844 165.208-98.46 197.387-2.099l0.022 0.064 25.215 74.735c3.379 10.355 11.531 18.458 22.138 21.992l74.593 25.174c95.251 32.009 94.354 167.668-1.545 197.811l-272.533 84.593z" />
<glyph unicode="&#xe90c;" glyph-name="work" horiz-adv-x="983" d="M528.389 352.638v-198.503h-73.756v198.503h73.756zM0.043 785.81h982.924v-377.633l-18.247-10.68c-127.283-74.509-293.673-118.639-473.461-118.639-179.813 0-345.704 44.141-472.968 118.639l-18.248 10.68v377.633zM73.8 712.054v-261.197c112.382-61.031 257.922-98.243 417.46-98.243 159.559 0 305.537 37.218 417.951 98.248v261.192h-835.412zM344.364 912.673h294.305l73.427-169.733-67.694-29.284-54.186 125.261h-197.402l-54.201-125.263-67.691 29.29 73.44 169.729zM73.713 329.11l9.336-272.027h816.903l9.337 272.027 73.712-2.532-11.781-343.252h-959.439l-11.78 343.252 73.713 2.532z" />
<glyph unicode="&#xe90d;" glyph-name="arrow-bottom" d="M1012.059 678.528c17.818-20.771 15.419-52.052-5.352-69.868l-462.319-396.545c-18.544-15.908-45.927-15.915-64.485-0.019l-462.587 396.232c-20.784 17.802-23.2 49.081-5.398 69.863s49.081 23.2 69.864 5.398l430.329-368.604 430.087 368.895c20.771 17.816 52.045 15.419 69.863-5.352z" />
<glyph unicode="&#xe90e;" glyph-name="arrow-left" d="M742.172-52.080c-20.784-17.805-52.066-15.387-69.863 5.397l-396.218 462.595c-15.898 18.564-15.887 45.942 0.024 64.492l396.556 462.306c17.811 20.771 49.092 23.166 69.863 5.348s23.169-49.097 5.352-69.867l-368.903-430.066 368.586-430.342c17.805-20.784 15.387-52.058-5.397-69.863z" />
<glyph unicode="&#xe90f;" glyph-name="arrow-right" d="M281.562 948.071c20.777 17.81 52.056 15.402 69.866-5.374l396.383-462.451c15.908-18.558 15.908-45.934 0-64.492l-396.383-462.451c-17.81-20.777-49.089-23.182-69.866-5.371-20.777 17.805-23.184 49.085-5.374 69.863l368.748 430.204-368.748 430.206c-17.81 20.777-15.403 52.056 5.374 69.866z" />
<glyph unicode="&#xe910;" glyph-name="arrow-up" d="M11.931 217.553c-17.81 20.777-15.405 52.051 5.373 69.863l462.438 396.402c18.552 15.906 45.934 15.906 64.492 0.003l462.463-396.372c20.777-17.811 23.182-49.085 5.377-69.863-17.811-20.777-49.092-23.189-69.869-5.377l-430.218 368.733-430.191-368.759c-20.776-17.811-52.056-15.406-69.866 5.371z" />
<glyph unicode="&#xe911;" glyph-name="calling" d="M987.206 532.357c-18.477 0-34.356 13.87-36.464 32.641-18.575 165.46-147.081 293.867-312.59 312.246-20.143 2.255-34.7 20.388-32.445 40.581 2.205 20.143 20.193 34.994 40.581 32.445 199.866-22.202 355.082-177.223 377.48-377.039 2.255-20.193-12.253-38.375-32.396-40.63-1.373-0.147-2.794-0.245-4.166-0.245zM813.704 531.828c-17.252 0-32.592 12.154-36.023 29.7-14.115 72.536-70.037 128.456-142.474 142.523-19.947 3.872-32.935 23.133-29.063 43.080s23.476 32.985 43.080 29.063c101.991-19.8 180.752-98.511 200.601-200.551 3.872-19.996-9.116-39.258-29.015-43.13-2.402-0.441-4.754-0.686-7.107-0.686zM63.162 848.242l3.555 3.716c94.465 94.473 155.98 119.514 221.616 81.77 18.88-10.857 36.581-26.055 60.649-50.5l73.827-76.555c40.777-44.497 50.049-87.177 36.773-137.162l-1.833-6.618-2.029-6.58-9.871-28.956c-21.123-64.938-12.301-101.577 62.856-176.715 78.158-78.137 114.641-84.528 184.584-60.087l12.468 4.333 15.075 4.896 6.597 1.833c53.128 14.174 98.007 2.863 145.605-44.702l59.485-57.46 17.512-17.222c19.413-19.795 32.244-35.484 41.723-52.064 37.508-65.615 12.439-127.094-84.749-223.919l-9.243-9.371c-14.513-13.983-28.068-24.001-47.986-33.46-33.43-15.875-72.928-21.858-118.821-15.473-113.092 15.728-256.521 104.957-438.269 286.654-14.794 14.792-28.964 29.298-42.523 43.521l-26.307 28.078c-246.516 267.831-268.264 432.357-167.238 535.544l6.545 6.502zM289.477 838.78c-15.967 15.743-27.566 25.338-37.792 31.218-22.62 13.008-47.041 7.509-92.24-31.392l-14.201-12.687c-2.477-2.287-5.011-4.66-7.604-7.123l-16.285-15.861-1.467-1.833-11.040-11.092c-26.679-27.25-39.316-60.509-28.427-117.706 17.87-93.857 99.665-221.176 264.24-385.715 171.483-171.435 302.14-252.718 396.417-265.829 54.96-7.646 82.995 5.665 111.582 34.955l21.804 22.001c10.223 10.699 18.957 20.398 26.334 29.255l10.061 12.679c25.716 34.248 28.064 54.799 17.066 74.035-4.18 7.322-10.268 15.345-19.129 25.157l-12.018 12.694-7.116 7.116-75.045 72.467c-25.079 23.128-42.218 26.407-68.238 19.467l-7.514-2.162-31.087-10.552c-90.185-29.127-155.246-15.002-251.057 80.779-99.227 99.207-110.864 165.451-77.617 260.836l2.133 6.129 5.899 17.77 2.899 11.326c5.139 24.651-0.728 41.839-27.227 68.341-1.091 1.091-2.31 2.32-3.638 3.667l-69.697 72.059z" />
<glyph unicode="&#xe912;" glyph-name="filter" d="M355.678 455.955l0.1-0.090c0.908-0.804 1.77-1.57 2.631-2.483 56.656-58.076 87.899-135.003 87.899-216.656v-209.2l117.413 63.957c9.242 5.041 14.966 14.913 14.966 25.782v120.091c0 81.338 30.928 158.003 87.062 215.764l253.991 270.165c16.435 17.486 25.468 40.432 25.468 64.64v49.15c0 24.364-19.218 44.16-42.743 44.16h-780.875c-23.577 0-42.795-19.796-42.795-44.16v-49.15c0-24.208 9.032-47.154 25.468-64.588l251.417-267.382zM427.771-63.999c-10.607 0-21.107 2.836-30.664 8.507-18.484 11.028-29.563 30.509-29.563 52.142v240.076c0 59.599-22.212 115.732-62.697 158.738-1.208 0.997-2.415 2.1-3.465 3.256l-254.463 270.585c-30.246 32.137-46.891 74.301-46.891 118.621v49.15c0 67.127 53.497 121.847 119.6 122.91 0.653 0.010 1.306 0.015 1.96 0.015h780.875c0.656 0 1.308-0.005 1.959-0.015 65.296-1.051 118.321-54.534 119.528-120.606 0.015-0.767 0.021-1.535 0.021-2.304v-49.15c0-0.909-0.005-1.818-0.021-2.724-0.667-43.267-17.239-84.316-46.765-115.844l-254.516-270.638c-42.166-43.478-65.217-100.661-65.217-161.363v-120.091c0-39.698-21.477-76.034-56.028-94.938l-144.981-78.975c-9.032-4.883-18.852-7.351-28.67-7.351zM904.42 959.984c65.296-1.051 118.321-54.534 119.528-120.606v-54.177c-0.667-43.267-17.239-84.316-46.765-115.844l-254.516-270.638c-42.166-43.478-65.217-100.661-65.217-161.363v-120.091c0-39.698-21.477-76.034-56.028-94.938l-144.981-78.975c-9.032-4.883-18.852-7.351-28.67-7.351-10.607 0-21.107 2.836-30.664 8.507-18.484 11.028-29.563 30.509-29.563 52.142v240.076c0 59.599-22.212 115.732-62.697 158.738-1.208 0.997-2.415 2.1-3.465 3.256l-254.463 270.585c-30.246 32.137-46.891 74.301-46.891 118.621v49.15c0 67.127 53.497 121.847 119.6 122.91h784.794zM355.678 455.955l0.1-0.090c0.908-0.804 1.77-1.57 2.631-2.483 56.656-58.076 87.899-135.003 87.899-216.656v-209.2l117.413 63.957c9.242 5.041 14.966 14.913 14.966 25.782v120.091c0 81.338 30.928 158.003 87.062 215.764l253.991 270.165c16.435 17.486 25.468 40.432 25.468 64.64v49.15c0 24.364-19.218 44.16-42.743 44.16h-780.875c-23.577 0-42.795-19.796-42.795-44.16v-49.15c0-24.208 9.032-47.154 25.468-64.588l251.417-267.382z" />
<glyph unicode="&#xe913;" glyph-name="graph" d="M345.789 705.567c-1.535 0-3.071-0.192-4.606-0.576-142.486-35.069-258.394-189.454-258.394-344.125 0-194.587 158.317-352.904 352.952-352.904 175.444 0 322.056 124.975 348.635 297.205 0.192 1.439 0.864 5.613-3.071 10.267-3.742 4.366-9.691 6.957-15.927 6.957-67.693 0-119.362-1.535-159.708-2.686-97.677-2.927-138.072-4.030-177.987 25.57-60.161 44.568-65.246 121.136-65.246 346.332 0 4.030-1.727 7.389-5.181 10.075-3.215 2.542-7.292 3.886-11.466 3.886zM435.743-64c-234.31 0-424.915 190.605-424.915 424.866 0 185.759 140.471 371.519 313.132 414.024 26.962 6.572 55.938 0.432 77.719-16.551 20.774-16.312 32.719-40.635 32.719-66.733 0-210.37 7.101-266.981 36.125-288.521 19.046-14.056 45.144-13.912 133.082-11.466 40.875 1.2 93.215 2.735 161.772 2.735 27.346 0 53.108-11.706 70.572-32.095 16.215-18.95 23.316-43.705 19.574-68.076-32.047-207.491-208.596-358.181-419.781-358.181zM587.027 887.953c-5.277-120.849 2.542-276.96 6.189-338.799 0.192-3.694 2.878-6.381 6.525-6.572 49.318-2.83 219.246-10.699 341.438 7.292 0.288 67.357-45.816 158.701-115.236 228.073-71.194 71.099-155.439 110.007-237.86 110.007h-1.056zM745.536 466.349c-62.847 0-118.162 2.542-149.97 4.366-40.011 2.351-71.867 34.254-74.17 74.265-3.742 63.423-11.85 224.571-6.093 349.21 1.583 36.221 30.848 65.054 66.637 65.678 102.523 2.974 208.308-44.617 294.854-131.020 84.34-84.292 137.88-195.067 136.345-282.237-0.576-34.015-25.282-62.415-58.673-67.452-65.15-9.835-141.43-12.809-208.931-12.809v0z" />
<glyph unicode="&#xe914;" glyph-name="info-circle" d="M510.399 12.805c239.975-0.881 435.915 193.622 436.797 433.597 0.881 239.972-193.622 435.914-433.597 436.797-239.971 0.882-435.913-193.623-436.797-433.597-0.882-239.968 193.623-435.91 433.597-436.797zM513.881 959.997c282.316-1.039 511.154-231.565 510.115-513.878-1.039-282.316-231.567-511.154-513.878-510.115-282.316 1.039-511.153 231.567-510.114 513.878 1.039 282.316 231.565 511.153 513.877 510.115zM512.56 518.296c21.196-0.076 38.339-17.341 38.256-38.539l-0.83-226.252c-0.076-21.196-17.346-38.339-38.544-38.256-21.196 0.076-38.334 17.341-38.256 38.539l0.83 226.252c0.082 21.196 17.346 38.339 38.544 38.256zM512.702 693.55c28.314-0.104 51.369-23.075 51.266-51.389s-22.871-51.116-51.134-51.012l-0.512 0.002c-28.314 0.104-51.112 23.074-51.010 51.387 0.107 28.314 23.076 51.115 51.39 51.011z" />
<glyph unicode="&#xe915;" glyph-name="message" d="M513.286 366.327c-31.863 0-63.631 10.525-90.208 31.577l-213.611 172.223c-15.383 12.383-17.766 34.912-5.43 50.247 12.431 15.289 34.912 17.718 50.247 5.382l213.42-172.032c26.814-21.242 64.583-21.242 91.589 0.191l211.277 171.746c15.337 12.526 37.816 10.145 50.295-5.192 12.431-15.289 10.097-37.769-5.192-50.247l-211.659-172.032c-26.767-21.242-58.773-31.863-90.731-31.863zM278.099 55.070h467.707c0.095 0.095 0.477 0 0.762 0 54.344 0 102.543 19.432 139.503 56.344 42.913 42.722 66.489 104.114 66.489 172.841v327.109c0 133.025-86.968 229.566-206.753 229.566h-467.611c-119.785 0-206.753-96.541-206.753-229.566v-327.109c0-68.727 23.624-130.119 66.489-172.841 36.959-36.912 85.207-56.344 139.503-56.344h0.666zM277.29-16.372c-73.49 0-139.121 26.671-189.798 77.157-56.439 56.296-87.493 135.645-87.493 223.47v327.109c0 171.603 119.594 301.008 278.195 301.008h467.611c158.601 0 278.195-129.405 278.195-301.008v-327.109c0-87.826-31.054-167.174-87.493-223.47-50.629-50.438-116.307-77.157-189.941-77.157h-469.278z" />
<glyph unicode="&#xe916;" glyph-name="question" d="M321.487-43.282c-13.336 0-27.149 3.334-39.532 10.002-27.148 14.288-43.816 42.865-43.816 73.347v67.632c-143.836 14.765-238.139 120.499-238.139 271.956v285.766c0 163.84 110.021 273.86 273.86 273.86h476.28c163.84 0 273.86-110.021 273.86-273.86v-285.766c0-163.84-110.021-273.86-273.86-273.86h-179.557l-202.896-135.269c-13.812-9.050-30.004-13.807-46.197-13.807zM273.86 868.315c-122.88 0-202.418-79.538-202.418-202.418v-285.772c0-122.88 79.538-202.418 202.418-202.418 19.527 0 35.721-16.194 35.721-35.721v-101.447c0-6.192 3.81-9.050 6.192-10.479s7.144-2.853 12.384 0.481l211.944 140.974c5.715 3.81 12.86 6.192 20.004 6.192h190.512c122.88 0 202.418 79.538 202.418 202.418v285.772c0 122.88-79.538 202.418-202.418 202.418h-476.755zM511.989 442.993c-19.527 0-35.721 16.194-35.721 35.721v10.002c0 55.248 40.484 82.396 55.725 92.874 17.623 11.907 23.338 20.004 23.338 32.387 0 23.814-19.527 43.343-43.342 43.343s-43.342-19.529-43.342-43.343c0-19.527-16.194-35.721-35.721-35.721s-35.719 16.194-35.719 35.721c0 63.346 51.436 114.785 114.781 114.785s114.784-51.439 114.784-114.785c0-54.296-40.007-81.444-54.772-91.446-18.575-12.383-24.29-20.48-24.29-33.815v-10.002c0-20.004-16.194-35.721-35.721-35.721zM511.999 324.4c-20.004 0-35.721 16.194-35.721 35.721s16.194 35.721 35.721 35.721c19.527 0 35.721-16.194 35.721-35.721s-15.717-35.721-35.721-35.721z" />
<glyph unicode="&#xe917;" glyph-name="cup" horiz-adv-x="983" d="M498.384 275.905c19.009 0 34.419-15.41 34.419-34.419v-96.373c0-19.009-15.41-34.419-34.419-34.419s-34.419 15.41-34.419 34.419v96.373c0 19.009 15.41 34.419 34.419 34.419zM234.507 34.974c0 69.49 56.713 126.202 126.202 126.202h275.35c69.49 0 126.202-56.713 126.202-126.202v-80.311h-493.336v34.419h-34.419v45.892zM303.344 23.501h390.080v11.473c0 31.472-25.893 57.365-57.365 57.365h-275.35c-31.472 0-57.365-25.893-57.365-57.365v-11.473zM188.615-10.918c0 19.009 15.41 34.419 34.419 34.419h550.701c19.009 0 34.419-15.41 34.419-34.419s-15.41-34.419-34.419-34.419h-550.701c-19.009 0-34.419 15.41-34.419 34.419zM353.825 872.499c-82.412 0-149.148-66.736-149.148-149.148v-137.675c0-158.593 128.231-286.823 286.823-286.823s286.823 128.23 286.823 286.823v137.675c0 82.412-66.736 149.148-149.148 149.148h-275.35zM135.84 723.351c0 120.43 97.556 217.986 217.986 217.986h275.35c120.429 0 217.986-97.556 217.986-217.986v-137.675c0-196.61-159.051-355.661-355.661-355.661s-355.661 159.051-355.661 355.661v137.675zM133.246 763.162c-37.297-7.129-64.409-39.044-64.409-78.819 0-53.326 22.535-100.314 59.39-141.503 2.279-2.258 4.621-4.475 7.020-6.641-2.924 18.309-4.457 37.114-4.457 56.36v137.675c0 11.088 0.81 22.098 2.455 32.928zM0 684.343c0 83.257 65.891 149.148 149.148 149.148h29.83c11.602 0 22.423-5.845 28.784-15.547s7.407-21.957 2.781-32.596c-7.138-16.416-10.913-35.1-10.913-55.114v-137.675c0-40.982 8.589-79.504 23.815-114.895 5.331-12.391 2.933-26.751-6.132-36.736s-23.128-13.759-35.975-9.647c-40.376 12.918-75.262 36.356-102.418 63.515-0.427 0.427-0.843 0.863-1.246 1.312-45.388 50.43-77.673 113.358-77.673 188.235zM775.239 817.944c6.361 9.702 17.181 15.547 28.783 15.547h29.83c83.257 0 149.148-65.891 149.148-149.148 0-74.877-32.284-137.804-77.672-188.235-0.403-0.449-0.821-0.886-1.248-1.312-27.154-27.159-62.041-50.595-102.416-63.515-12.845-4.112-26.911-0.339-35.975 9.647-9.069 9.986-11.464 24.345-6.131 36.736 15.222 35.391 23.813 73.913 23.813 114.895v137.675c0 20.014-3.777 38.697-10.913 55.114-4.626 10.639-3.58 22.893 2.781 32.596zM849.754 763.162c1.643-10.83 2.455-21.841 2.455-32.928v-137.675c0-19.245-1.533-38.052-4.456-56.36 2.4 2.166 4.74 4.383 7.022 6.641 36.856 41.189 59.388 88.177 59.388 141.503 0 39.775-27.113 71.69-64.409 78.819z" />
<glyph unicode="&#xe918;" glyph-name="edit" d="M733.644-64h-443.618c-172.993 0-289.226 121.412-289.226 302.097v417.978c0 180.685 116.233 302.097 289.226 302.097h187.975c20.813 0 37.706-16.892 37.706-37.706s-16.892-37.706-37.706-37.706h-187.975c-129.908 0-213.815-88.985-213.815-226.685v-417.978c0-137.701 83.908-226.685 213.815-226.685h443.618c129.908 0 213.866 88.985 213.866 226.685v202.503c0 20.813 16.892 37.706 37.706 37.706s37.706-16.892 37.706-37.706v-202.503c0-180.685-116.284-302.097-289.277-302.097zM346.060 284.923h149.666c19.104 0 37.002 7.39 50.525 20.914l377.508 377.508c15.484 15.484 24.031 36.097 24.031 58.016 0 21.969-8.546 42.632-24.031 58.117l-61.183 61.183c-32.025 31.924-84.108 31.924-116.184 0l-375.698-375.698c-13.021-13.021-20.412-30.315-20.864-48.665l-3.771-151.375zM495.727 209.512h-188.327c-10.156 0-19.909 4.123-26.997 11.412-7.089 7.239-10.959 17.043-10.708 27.248l4.726 189.985c0.956 37.806 16.189 73.35 42.934 100.146l375.748 375.698c61.435 61.334 161.329 61.334 222.764 0l61.183-61.183c29.812-29.763 46.202-69.327 46.152-111.457 0-42.13-16.389-81.645-46.152-111.357l-377.508-377.508c-27.701-27.701-64.602-42.984-103.816-42.984zM892.202 562.018c-9.653 0-19.305 3.67-26.645 11.061l-229.551 229.551c-14.73 14.73-14.73 38.61 0 53.34s38.56 14.73 53.291 0l229.551-229.602c14.73-14.73 14.73-38.56 0-53.291-7.34-7.39-16.992-11.061-26.645-11.061z" />
<glyph unicode="&#xe919;" glyph-name="show" d="M511.965 571.458c-68.096 0-123.442-55.397-123.442-123.493 0-68.044 55.347-123.391 123.442-123.391s123.493 55.347 123.493 123.391c0 68.096-55.397 123.493-123.493 123.493zM511.965 247.775c-110.437 0-200.241 89.803-200.241 200.19 0 110.437 89.803 200.292 200.241 200.292s200.292-89.855 200.292-200.292c0-110.385-89.855-200.19-200.292-200.19zM80.37 448.006c95.231-210.378 255.639-335.458 431.61-335.51 175.972 0.052 336.38 125.131 431.61 335.51-95.231 210.327-255.639 335.406-431.61 335.458-175.921-0.052-336.38-125.131-431.61-335.458v0zM512.083 35.697h-0.256c-211.76 0.154-401.914 148.581-508.717 397.153-4.147 9.677-4.147 20.634 0 30.31 106.802 248.522 297.007 396.949 508.717 397.102 0.102 0.052 0.102 0.052 0.154 0 0.102 0.052 0.102 0.052 0.154 0 211.76-0.154 401.914-148.581 508.717-397.102 4.199-9.677 4.199-20.634 0-30.31-106.751-248.573-296.957-396.999-508.717-397.153h-0.052z" />
<glyph unicode="&#xe91a;" glyph-name="calendar" d="M52.040 571.631c0 19.728 15.993 35.721 35.721 35.721h848.916c19.728 0 35.721-15.993 35.721-35.721s-15.993-35.723-35.721-35.723h-848.916c-19.728 0-35.721 15.995-35.721 35.723zM687.846 385.622c0 19.728 15.993 35.721 35.721 35.721h0.439c19.732 0 35.721-15.993 35.721-35.721s-15.988-35.721-35.721-35.721h-0.439c-19.728 0-35.721 15.993-35.721 35.721zM476.497 385.622c0 19.728 15.993 35.721 35.721 35.721h0.443c19.728 0 35.721-15.993 35.721-35.721s-15.993-35.721-35.721-35.721h-0.443c-19.728 0-35.721 15.993-35.721 35.721zM264.71 385.622c0 19.728 15.993 35.721 35.721 35.721h0.441c19.728 0 35.721-15.993 35.721-35.721s-15.993-35.721-35.721-35.721h-0.441c-19.728 0-35.721 15.993-35.721 35.721zM687.846 200.517c0 19.728 15.993 35.721 35.721 35.721h0.439c19.732 0 35.721-15.993 35.721-35.721s-15.988-35.721-35.721-35.721h-0.439c-19.728 0-35.721 15.993-35.721 35.721zM476.497 200.517c0 19.728 15.993 35.721 35.721 35.721h0.443c19.728 0 35.721-15.993 35.721-35.721s-15.993-35.721-35.721-35.721h-0.443c-19.728 0-35.721 15.993-35.721 35.721zM264.71 200.517c0 19.728 15.993 35.721 35.721 35.721h0.441c19.728 0 35.721-15.993 35.721-35.721s-15.993-35.721-35.721-35.721h-0.441c-19.728 0-35.721 15.993-35.721 35.721zM704.591 960.001c19.728 0 35.721-15.993 35.721-35.721v-156.733c0-19.728-15.993-35.721-35.721-35.721s-35.721 15.993-35.721 35.721v156.733c0 19.728 15.993 35.721 35.721 35.721zM319.845 960.001c19.728 0 35.721-15.993 35.721-35.721v-156.733c0-19.728-15.993-35.721-35.721-35.721s-35.721 15.993-35.721 35.721v156.733c0 19.728 15.993 35.721 35.721 35.721zM119.902 818.095c47.706 45.35 114.308 66.691 190.677 66.691h403.281c76.557 0 143.198-21.325 190.821-66.727 47.895-45.655 71.918-111.229 71.69-190.181v-434.568c0-78.953-24.147-144.598-72.056-190.34-47.652-45.498-114.278-66.97-190.897-66.97h-402.838c-76.583 0-143.262 21.918-190.926 68.113-47.843 46.37-72.026 112.836-72.026 192.798v431.017c0 79.007 24.292 144.553 72.274 190.167zM169.124 766.315c-30.665-29.15-50.055-74.172-50.055-138.386v-431.017c0-65.508 19.499-111.64 50.305-141.497 30.983-30.029 77.921-47.971 141.205-47.971h402.838c63.693 0 110.678 17.713 141.564 47.2 30.63 29.249 49.948 74.4 49.948 138.668v434.727c0.195 64.243-19.018 109.214-49.543 138.311-30.801 29.363-77.777 46.995-141.526 46.995h-403.281c-63.499 0-110.514-17.616-141.455-47.030z" />
<glyph unicode="&#xe91b;" glyph-name="chart" d="M291.551 569.37c19.728 0 35.721-15.993 35.721-35.721v-326.732c0-19.732-15.993-35.721-35.721-35.721s-35.721 15.988-35.721 35.721v326.732c0 19.728 15.993 35.721 35.721 35.721zM513.815 725.712c19.728 0 35.721-15.993 35.721-35.721v-483.074c0-19.732-15.993-35.721-35.721-35.721s-35.721 15.988-35.721 35.721v483.074c0 19.728 15.993 35.721 35.721 35.721zM732.45 396.715c19.728 0 35.721-15.993 35.721-35.721v-154.077c0-19.732-15.993-35.721-35.721-35.721s-35.721 15.988-35.721 35.721v154.077c0 19.728 15.993 35.721 35.721 35.721zM77.802 874.090c51.278 55.007 124.39 85.91 211.027 85.91h446.34c86.84 0 159.973-30.889 211.215-85.927 50.971-54.75 77.615-130.487 77.615-215.803v-420.537c0-85.32-26.643-161.059-77.615-215.807-51.243-55.039-124.376-85.926-211.215-85.926h-446.34c-86.841 0-159.972 30.886-211.213 85.926-50.971 54.748-77.616 130.486-77.616 215.807v420.537c0 85.361 26.784 161.092 77.802 215.82zM130.060 825.375c-36.64-39.303-58.618-96.576-58.618-167.106v-420.537c0-70.574 21.89-127.843 58.463-167.126 36.304-38.993 89.728-63.165 158.925-63.165h446.34c69.198 0 122.623 24.171 158.925 63.165 36.574 39.283 58.463 96.551 58.463 167.126v420.537c0 70.573-21.89 127.841-58.463 167.122-36.302 38.994-89.726 63.166-158.925 63.166h-446.34c-68.948 0-122.39-24.157-158.769-63.182z" />
<glyph unicode="&#xe91c;" glyph-name="delete" d="M512.901-64c-69.377 0-137.013 0.768-203.932 2.15-85.608 1.69-144.847 57.192-154.524 144.847-16.128 145.41-43.725 488.147-43.982 491.578-1.741 21.145 14.029 39.681 35.175 41.371 20.838 0.563 39.681-14.080 41.371-35.175 0.256-3.481 27.802-345.042 43.777-489.325 5.478-49.819 32.358-75.521 79.771-76.494 128.002-2.713 258.614-2.867 399.417-0.307 50.381 0.973 77.621 26.164 83.252 77.16 15.873 143.055 43.521 485.484 43.828 488.967 1.69 21.095 20.377 35.841 41.319 35.175 21.145-1.741 36.916-20.224 35.226-41.371-0.307-3.481-28.058-347.089-44.032-491.219-9.933-89.448-69.019-143.874-158.21-145.513-68.251-1.177-134.095-1.843-198.454-1.843zM946.13 704.559h-868.261c-21.197 0-38.401 17.203-38.401 38.401s17.203 38.401 38.401 38.401h868.261c21.197 0 38.401-17.203 38.401-38.401s-17.203-38.401-38.401-38.401zM778.827 704.559c-58.267 0-108.852 41.524-120.322 98.664l-12.442 62.26c-2.611 9.472-13.415 17.716-25.703 17.716h-216.732c-12.288 0-23.092-8.243-26.214-20.070l-11.929-59.905c-11.418-57.14-62.055-98.664-120.322-98.664-21.197 0-38.401 17.203-38.401 38.401s17.203 38.401 38.401 38.401c21.811 0 40.756 15.565 45.057 36.966l12.442 62.26c12.647 47.719 53.966 79.412 100.968 79.412h216.732c47.002 0 88.321-31.694 100.456-77.108l13.005-64.564c4.249-21.402 23.194-36.966 45.005-36.966 21.197 0 38.401-17.203 38.401-38.401s-17.203-38.401-38.401-38.401z" />
<glyph unicode="&#xe91d;" glyph-name="document" d="M698.882 189.881h-371.334c-21.293 0-38.574 17.281-38.574 38.574s17.281 38.574 38.574 38.574h371.334c21.293 0 38.574-17.281 38.574-38.574s-17.281-38.574-38.574-38.574zM698.882 405.199h-371.334c-21.293 0-38.574 17.281-38.574 38.574s17.281 38.574 38.574 38.574h371.334c21.293 0 38.574-17.281 38.574-38.574s-17.281-38.574-38.574-38.574zM469.224 620.018h-141.694c-21.293 0-38.574 17.281-38.574 38.574s17.281 38.574 38.574 38.574h141.694c21.293 0 38.574-17.281 38.574-38.574s-17.281-38.574-38.574-38.574zM708.802 882.853l-395.456-0.206c-119.732-0.72-191.325-74.781-191.325-198.166v-472.964c0-124.207 72.262-198.37 193.176-198.37l395.456 0.154c119.732 0.72 191.325 74.885 191.325 198.216v472.964c0 124.207-72.21 198.37-193.176 198.37zM315.248-64c-161.7 0-270.375 110.731-270.375 275.518v472.964c0 166.277 105.28 274.335 268.215 275.313l395.714 0.206c161.7 0 270.323-110.731 270.323-275.518v-472.964c0-166.227-105.28-274.335-268.215-275.363l-395.662-0.154z" />
<glyph unicode="&#xe91e;" glyph-name="download" d="M512.042 227.699c-21.197 0-38.4 17.203-38.4 38.4v616.498c0 21.197 17.203 38.4 38.4 38.4s38.4-17.203 38.4-38.4v-616.498c0-21.197-17.203-38.4-38.4-38.4zM512.042 227.699c-10.189 0-20.020 4.045-27.187 11.315l-149.299 149.862c-14.951 15.053-14.899 39.373 0.102 54.323 15.053 14.951 39.322 14.951 54.272-0.102l122.112-122.624 122.112 122.624c14.951 15.053 39.22 15.053 54.272 0.102 15.001-14.951 15.053-39.27 0.102-54.323l-149.299-149.862c-7.168-7.271-16.998-11.315-27.187-11.315zM797.44-24.998h-570.368c-125.184 0-227.072 101.837-227.072 227.072v250.112c0 124.928 101.632 226.508 226.611 226.508h48.179c21.197 0 38.4-17.203 38.4-38.4s-17.203-38.4-38.4-38.4h-48.179c-82.637 0-149.811-67.123-149.811-149.708v-250.112c0-82.892 67.379-150.272 150.272-150.272h570.368c82.535 0 149.76 67.225 149.76 149.76v250.061c0 82.892-67.43 150.272-150.221 150.272h-47.718c-21.197 0-38.4 17.203-38.4 38.4s17.203 38.4 38.4 38.4h47.718c125.184 0 227.021-101.888 227.021-227.072v-250.061c0-124.928-101.683-226.56-226.56-226.56z" />
<glyph unicode="&#xe91f;" glyph-name="location" d="M341.333 526.743c0 94.286 76.406 170.693 170.693 170.693 94.245 0 170.64-76.417 170.64-170.693 0-94.234-76.406-170.64-170.64-170.64-94.276 0-170.693 76.395-170.693 170.64zM512.026 618.667c-50.785 0-91.924-41.141-91.924-91.924 0-50.722 41.134-91.871 91.924-91.871 50.727 0 91.871 41.143 91.871 91.871 0 50.793-41.15 91.924-91.871 91.924zM511.974 881.231c-195.461 0-354.436-159.89-354.436-357.786 0-125.679 75.093-253.542 163.372-352.939 43.553-49.036 88.81-89.414 126.399-117.22 18.842-13.937 35.163-24.277 47.908-30.935 9.714-5.078 15.019-6.753 16.757-7.31 1.738 0.556 7.042 2.238 16.762 7.31 12.745 6.658 29.071 16.998 47.913 30.935 37.594 27.806 82.86 68.188 126.42 117.225 88.289 99.396 163.393 227.26 163.393 352.933 0 197.889-159.019 357.786-354.487 357.786zM78.769 523.445c0 240.762 193.607 436.555 433.205 436.555 239.59 0 433.257-195.787 433.257-436.555 0-154.482-90.364-300.651-183.275-405.247-47.041-52.959-96.314-97.065-138.465-128.241-21.036-15.559-40.892-28.336-58.289-37.42-15.486-8.092-34.978-16.537-53.227-16.537-18.242 0-37.742 8.444-53.227 16.537-17.397 9.084-37.247 21.866-58.279 37.42-42.149 31.182-91.415 75.287-138.45 128.247-92.897 104.594-183.247 250.759-183.247 405.242z" />
<glyph unicode="&#xe920;" glyph-name="profile" d="M240.233 283.871c73.692 24.705 171.318 32.157 271.794 32.157 101.079 0 198.737-7.741 272.327-32.771 37.002-12.584 70.735-30.457 95.56-56.471 25.716-26.953 40.238-61.032 40.238-101.311 0-40.367-14.656-74.425-40.517-101.276-24.948-25.896-58.806-43.598-95.838-56.023-73.679-24.711-171.295-32.178-271.771-32.178-101.079 0-198.748 7.73-272.353 32.75-37.006 12.58-70.75 30.452-95.579 56.471-25.721 26.958-40.246 61.043-40.246 101.331 0 40.377 14.656 74.446 40.524 101.301 24.951 25.901 58.818 43.598 95.858 56.018zM200.046 174.222c-12.274-12.744-18.894-27.699-18.894-47.67 0-20.052 6.615-35.126 18.87-47.963 13.145-13.78 34.207-26.339 64.534-36.652 61.060-20.758 148.155-28.638 247.472-28.638 98.832 0 185.955 7.627 247.189 28.169 30.416 10.204 51.555 22.665 64.747 36.357 12.27 12.739 18.887 27.694 18.887 47.649 0 20.037-6.612 35.106-18.866 47.947-13.141 13.775-34.199 26.339-64.521 36.652-61.043 20.763-148.125 28.653-247.436 28.653-98.843 0-185.978-7.617-247.22-28.149-30.425-10.199-51.57-22.665-64.76-36.357zM238.355 686.441c0.034 151.109 122.573 273.559 273.673 273.559 151.124 0 273.621-122.493 273.621-273.622 0-151.118-122.486-273.672-273.621-273.672h-1.794c-150.628 0.51-272.356 123.084-271.879 273.735zM238.355 686.441c0 0.021 0 0.041 0 0.063l36.81-0.124h-36.81c0 0.021 0 0.041 0 0.063zM512.027 886.38c-110.482 0-200.052-89.543-200.052-200.001v-0.124c-0.373-110.018 88.508-199.523 198.45-199.925h1.603c110.459 0 199.999 89.572 199.999 200.050 0 110.468-89.531 200.001-199.999 200.001z" />
<glyph unicode="&#xe921;" glyph-name="search" d="M492.551 885.877c-224.845 0-407.118-182.273-407.118-407.117s182.273-407.12 407.118-407.12c224.843 0 407.114 182.276 407.114 407.12s-182.271 407.117-407.114 407.117zM11.307 478.759c0 265.783 215.459 481.241 481.242 481.241 265.779 0 481.239-215.459 481.239-481.241 0-265.785-215.459-481.244-481.239-481.244-265.783 0-481.242 215.459-481.242 481.244zM775.245 172.927c14.454 14.494 37.921 14.524 52.41 0.069l174.148-173.693c14.489-14.454 14.524-37.921 0.069-52.416-14.459-14.489-37.921-14.524-52.416-0.064l-174.142 173.688c-14.494 14.454-14.524 37.921-0.069 52.416z" />
<glyph unicode="&#xe922;" glyph-name="sort" d="M613.13 508.294c124.676 0 175.903 88.513 113.376 196.614l-100.942 174.017c-62.527 108.1-164.598 108.1-227.126 0l-100.944-174.017c-62.526-108.1-11.3-196.614 113.377-196.614h202.259zM613.13 387.707c124.676 0 175.903-88.516 113.376-196.615l-100.942-174.017c-62.527-108.1-164.598-108.1-227.126 0l-100.944 174.017c-62.526 108.1-11.3 196.615 113.377 196.615h202.259z" />
<glyph unicode="&#xe923;" glyph-name="video" d="M238.257 755.18c-21.579 0-35.489 0-37.898-0.098-36.276-1.524-69.75-16.909-93.884-43.256-22.512-24.626-34.114-56.086-32.589-88.723 0-142.204 0.050-355.631 0.393-367.331 5.604-68.078 69.406-120.133 142.449-114.529 30.62-0.044 64.58-0.104 98.904-0.158 117.203-0.202 238.654-0.403 245.914-0.137 36.128 1.475 69.652 16.811 93.787 43.109 22.562 24.528 34.162 55.986 32.737 88.478-0.050 0.54-0.050 1.082-0.050 1.622 0.050 140.582 0.050 353.862-0.295 365.316-5.554 68.423-69.652 121.117-143.089 115.366-101.553 0.147-240.119 0.344-306.379 0.344zM203.8 67.019c-0.065 0-0.128 0-0.192 0-103.832 0.050-194.367 79.645-202.914 184.034-0.147 2.015-0.639 8.16-0.492 370.378-0.135 2.895-0.202 5.789-0.202 8.681 0 47.712 18.276 94.57 52.109 131.508 37.456 40.897 89.117 64.736 145.497 67.145 5.783 0.416 175.978 0.058 289.494-0.182 20.601-0.044 39.333-0.083 54.88-0.113 4.851 0.341 9.689 0.509 14.491 0.509 104.694-0.002 196.328-79.665 204.837-184.986 0.393-5.358 0.54-129.473 0.442-369.1 0.104-2.62 0.158-5.23 0.158-7.84 0-49.081-18.374-96.018-52.261-132.888-37.505-40.847-89.215-64.589-145.546-66.899-5.589-0.399-162.593-0.054-275.678 0.197-26.152 0.059-49.955 0.108-68.993 0.147-5.211-0.393-10.42-0.59-15.631-0.59zM761.308 643.993c0.393-5.358 0.54-129.473 0.442-369.1 0.104-2.62 0.158-5.23 0.158-7.84 0-49.081-18.374-96.018-52.261-132.888-37.505-40.847-89.215-64.589-145.546-66.899-5.589-0.399-162.593-0.054-275.678 0.197-26.152 0.059-49.955 0.108-68.993 0.147-5.211-0.393-10.42-0.59-15.631-0.59h-0.192c-103.832 0.050-194.367 79.645-202.914 184.034-0.149 2.025-0.639 8.725-0.492 370.378-0.135 2.895-0.202 5.789-0.202 8.681 0 47.712 18.276 94.57 52.109 131.508 37.456 40.897 89.117 64.736 145.497 67.145 5.783 0.416 175.978 0.058 289.494-0.182l54.88-0.113c4.851 0.341 9.689 0.509 14.491 0.509 104.694-0.002 196.328-79.665 204.837-184.986zM238.257 755.18c-21.579 0-35.489 0-37.898-0.098-36.276-1.524-69.75-16.909-93.884-43.256-22.512-24.626-34.114-56.086-32.589-88.723 0-142.204 0.050-355.631 0.393-367.331 5.604-68.078 69.406-120.133 142.449-114.529l98.904-0.158c117.203-0.202 238.654-0.403 245.914-0.137 36.128 1.475 69.652 16.811 93.787 43.109 22.562 24.528 34.162 55.986 32.737 88.478-0.050 0.54-0.050 1.082-0.050 1.622 0.050 140.582 0.050 353.862-0.295 365.316-5.554 68.423-69.652 121.117-143.089 115.366-101.553 0.147-240.119 0.344-306.379 0.344zM925.003 172.815c-22.169 0-44.042 7.619-62.082 22.414l-161.275 132.52c-15.729 12.927-17.99 36.178-5.063 51.907 12.879 15.681 36.128 18.040 51.857 5.063l161.227-132.52c10.863-8.848 21.775-5.211 26.003-3.146 4.227 1.967 14.009 8.11 14.009 22.070l0.59 361.235c0.050 13.959-9.782 20.105-14.009 22.119-4.179 1.967-15.238 5.653-26.003-3.195l-161.865-132.471c-15.828-12.927-38.98-10.617-51.857 5.211-12.927 15.729-10.568 38.93 5.161 51.809l161.865 132.52c29.69 24.331 69.652 29.1 104.306 12.731 34.654-16.466 56.183-50.482 56.134-88.822l-0.59-361.235c-0.050-38.34-21.628-72.355-56.233-88.675-13.567-6.439-27.92-9.536-42.174-9.536z" />
<glyph unicode="&#xe924;" glyph-name="export" d="M46.28 489.040c24.113 0 43.661-19.548 43.661-43.661 0-118.794 40.234-224.046 111.702-299.283 71.139-74.887 175.79-122.775 310.358-122.775 123.358 0 221.462 40.197 291.931 104.45 17.819 16.247 45.431 14.973 61.678-2.846s14.973-45.431-2.846-61.678c-87.875-80.121-207.496-127.247-350.762-127.247-156.506 0-284.716 56.318-373.669 149.961-88.624 93.296-135.713 220.903-135.713 359.419 0 24.113 19.548 43.661 43.661 43.661zM977.719 489.040c24.113 0 43.661-19.548 43.661-43.661 0-65.853-10.666-128.929-30.948-187.243-7.923-22.773-32.81-34.818-55.583-26.895s-34.813 32.81-26.895 55.583c16.976 48.801 26.104 102.155 26.104 158.554 0 24.113 19.548 43.661 43.661 43.661zM481.128 947.212c17.051 17.051 44.691 17.051 61.742 0l149.031-149.031c17.051-17.051 17.051-44.695 0-61.747s-44.691-17.051-61.742 0l-118.16 118.157-118.157-118.157c-17.051-17.051-44.695-17.051-61.747 0s-17.051 44.695 0 61.747l149.032 149.031zM511.999 955.925c24.113 0 43.661-19.548 43.661-43.661v-300.972c0-24.113-19.548-43.661-43.661-43.661s-43.661 19.548-43.661 43.661v300.972c0 24.113 19.548 43.661 43.661 43.661zM511.999 477.979c24.113 0 43.661-19.548 43.661-43.661v-114.102c0-24.113-19.548-43.661-43.661-43.661s-43.661 19.548-43.661 43.661v114.102c0 24.113 19.548 43.661 43.661 43.661z" />
<glyph unicode="&#xe925;" glyph-name="bars" d="M0.001 832.001h1024v-85.334h-1024v85.334zM0.001 490.666h1024v-85.334h-1024v85.334zM0.001 149.333h1024v-85.334h-1024v85.334z" />
<glyph unicode="&#xe926;" glyph-name="circle-close" d="M688.958 571.15l-299.657-299.657-54.306 54.308 299.655 299.654 54.308-54.306zM389.106 625.555l299.857-299.918-54.313-54.298-299.855 299.916 54.312 54.3zM0 448c0 282.77 229.23 512 512 512 282.767 0 512-229.23 512-512 0-282.767-229.232-512-512-512-282.77 0-512 229.232-512 512zM512 883.2c-240.354 0-435.2-194.845-435.2-435.2s194.845-435.2 435.2-435.2c240.353 0 435.2 194.846 435.2 435.2s-194.846 435.2-435.2 435.2z" />
<glyph unicode="&#xe927;" glyph-name="plus" d="M967.111 391.111h-910.222c-31.099 0-56.889 25.79-56.889 56.889s25.79 56.889 56.889 56.889h910.222c31.099 0 56.889-25.79 56.889-56.889s-25.79-56.889-56.889-56.889zM512-64c-31.099 0-56.889 25.79-56.889 56.889v910.222c0 31.099 25.79 56.889 56.889 56.889s56.889-25.79 56.889-56.889v-910.222c0-31.099-25.79-56.889-56.889-56.889z" />
<glyph unicode="&#xe928;" glyph-name="clock" d="M512 883.2c-239.975 0-435.2-195.225-435.2-435.2s195.225-435.2 435.2-435.2c239.975 0 435.2 195.225 435.2 435.2s-195.225 435.2-435.2 435.2zM512-64c-282.317 0-512 229.683-512 512s229.683 512 512 512c282.317 0 512-229.683 512-512s-229.683-512-512-512zM687.677 258.95c-6.707 0-13.465 1.741-19.661 5.376l-193.023 115.148c-11.572 6.964-18.739 19.507-18.739 33.024v248.217c0 21.197 17.203 38.4 38.4 38.4 21.248 0 38.4-17.203 38.4-38.4v-226.406l174.336-103.936c18.176-10.906 24.167-34.458 13.312-52.685-7.219-12.032-19.968-18.739-33.024-18.739z" />
<glyph unicode="&#xe929;" glyph-name="hole" d="M270 954.605c10 6 22 6 32 2l447.998-224c10.004-6 18.002-16 18.002-28s-7.998-24-18.002-30l-429.998-213.997v-124.001c58 10 124.001 16 192 16 281.999 0 512-94.003 512-207.999 0-115.999-230-207.999-512-207.999-284 0-512 92.002-512 207.999 0 64 74 124.001 192 161.996v-67.999c-8-1.997-14-3.998-18-7.998-42-16-72-34.002-90-52.004-18-17.996-20-29.998-20-33.997 0-6.001 2-18.002 20-35.999 18-18.002 48-36.004 90-52.004 82-33.997 201.999-55.998 338-55.998 134 0 253.998 22.001 338.001 55.998 39.997 16 70.001 34.002 87.997 52.004 18.002 17.996 22.001 29.998 22.001 35.999 0 3.998-3.998 16-22.001 33.997-17.996 18.002-48 36.004-87.997 52.004-84.004 33.997-204.001 58-338.001 58-70.001 0-134-6.001-192-16v-58c34 16 78 25.999 128 25.999 106 0 192-44.002 192-96 0-54.001-86-96-192-96s-192 41.999-192 96v783.998c0 10 4.001 19.999 14 26zM320 530.603l344.003 174.002-344.003 171.999v-346.002zM553.999 154.606c-23.998 12.001-61.998 22.001-106 22.001-46 0-84-10-108-22.001-8-3.998-14-8.003-18-10 4.001-3.998 10.001-8.003 18-12.001 24-12.001 61.999-19.999 108-19.999 44.002 0 82.002 7.998 106 19.999 8.003 3.998 14.003 8.003 18.002 12.001-3.998 1.997-10 6.001-18.002 10zM576 138.605c0 0 0 0 2.002 0 0 2.002-2.002 2.002-2.002 2.002 0-2.002 0-2.002 0-2.002z" />
</font>
</defs>
</svg>
